<?xml version="1.0" encoding="utf-8"?>
<!-- Generator: Adobe Illustrator 14.0.0, SVG Export Plug-In . SVG Version: 6.00 Build 43363)  -->
<!DOCTYPE svg PUBLIC "-//W3C//DTD SVG 1.1//EN" "http://www.w3.org/Graphics/SVG/1.1/DTD/svg11.dtd">
<svg version="1.1" id="Layer_1" xmlns="http://www.w3.org/2000/svg" xmlns:xlink="http://www.w3.org/1999/xlink" x="0px" y="0px"
	 width="100px" height="100px" viewBox="0 0 100 100" enable-background="new 0 0 100 100" xml:space="preserve">
<rect x="21.938" y="21.818" fill="#BCCCCC" width="55.205" height="59.682"/>
<g>
	<path fill="#CCCAB8" d="M9.608,96.134c-0.349,0-0.633-0.285-0.633-0.634V28.857l-0.377-0.222c-0.567-0.334-1.092-0.741-1.559-1.207
		c-1.803-1.803-2.795-4.198-2.795-6.749c0-2.55,0.993-4.946,2.796-6.748c0.288-0.288,0.593-0.564,0.909-0.822l1.668-1.358H3.583
		c-0.35,0-0.633-0.285-0.633-0.635V3.91c0-0.351,0.284-0.634,0.633-0.634h45.738c0.35,0,0.633,0.284,0.633,0.634v7.207
		c0,0.35-0.284,0.635-0.633,0.635h-6.034l1.669,1.358c0.319,0.26,0.625,0.536,0.907,0.82c1.802,1.801,2.792,4.197,2.792,6.749
		c0,2.554-0.991,4.949-2.792,6.75c-0.465,0.466-0.99,0.872-1.557,1.204l-0.377,0.223V95.5c0,0.349-0.284,0.634-0.635,0.634"/>
	<path fill="#999785" d="M9.608,96.134c-0.349,0-0.633-0.285-0.633-0.634V28.857l-0.377-0.222c-0.567-0.334-1.092-0.741-1.559-1.207
		c-1.803-1.803-2.795-4.198-2.795-6.749c0-2.55,0.993-4.946,2.796-6.748c0.288-0.288,0.593-0.564,0.909-0.822l1.668-1.358H3.583
		c-0.35,0-0.633-0.285-0.633-0.635V3.91c0-0.351,0.284-0.634,0.633-0.634h45.738c0.35,0,0.633,0.284,0.633,0.634v7.207
		c0,0.35-0.284,0.635-0.633,0.635h-6.034l1.669,1.358c0.319,0.26,0.625,0.536,0.907,0.82c1.802,1.801,2.792,4.197,2.792,6.749
		c0,2.554-0.991,4.949-2.792,6.75c-0.465,0.466-0.99,0.872-1.557,1.204l-0.377,0.223V95.5c0,0.349-0.284,0.634-0.635,0.634
		 M36.248,35.907c-0.902,0-1.635,0.733-1.635,1.636v57.324h3.269V37.543C37.882,36.641,37.148,35.907,36.248,35.907L36.248,35.907z
		 M26.479,35.907c-0.901,0-1.634,0.733-1.634,1.636v57.324h3.269V37.543C28.113,36.641,27.38,35.907,26.479,35.907L26.479,35.907z
		 M16.656,35.907c-0.9,0-1.633,0.733-1.633,1.636v57.324h3.268V37.543C18.291,36.641,17.558,35.907,16.656,35.907L16.656,35.907z
		 M33.347,94.867V37.543c0-1.602,1.301-2.903,2.901-2.903l0,0c1.599,0,2.901,1.302,2.901,2.903v57.324h3.514L42.661,29.41
		l-0.901,0.162c-0.456,0.082-0.921,0.122-1.385,0.122c-2.076,0-4.024-0.806-5.487-2.266c-0.655-0.656-1.149-1.43-1.466-2.301
		l-0.183-0.505H19.667l-0.185,0.505c-0.316,0.871-0.811,1.645-1.466,2.301c-1.466,1.466-3.416,2.271-5.489,2.271
		c-0.458,0-0.924-0.041-1.384-0.124l-0.9-0.161v65.452h3.513V37.543c0-1.602,1.302-2.903,2.901-2.903s2.901,1.302,2.901,2.903
		v57.324h4.02V37.543c0-1.602,1.302-2.903,2.902-2.903s2.901,1.302,2.901,2.903v57.324H33.347z M4.217,10.483h44.472V4.542H4.217
		V10.483z M15.36,11.751c-2.803,0-5.441,1.093-7.425,3.076c-1.563,1.563-2.424,3.642-2.424,5.853s0.861,4.288,2.424,5.854
		c1.227,1.226,2.858,1.902,4.592,1.902c1.734,0,3.366-0.677,4.593-1.902c0.956-0.956,1.483-2.23,1.483-3.586
		s-0.528-2.628-1.483-3.584c-0.741-0.74-1.729-1.148-2.778-1.148c-1.05,0-2.037,0.408-2.778,1.148
		c-0.12,0.12-0.278,0.187-0.448,0.187c-0.169,0-0.328-0.066-0.447-0.187c-0.248-0.247-0.248-0.648,0-0.896
		c0.979-0.98,2.284-1.52,3.674-1.52c1.39,0,2.694,0.539,3.674,1.52c1.112,1.11,1.766,2.589,1.844,4.161l0.036,0.728h13.11
		l0.037-0.728c0.078-1.572,0.733-3.051,1.844-4.161c0.98-0.98,2.286-1.52,3.675-1.52c1.389,0,2.694,0.539,3.672,1.52
		c0.122,0.12,0.187,0.278,0.187,0.448c0,0.169-0.065,0.328-0.187,0.447c-0.118,0.12-0.277,0.187-0.448,0.187
		c-0.169,0-0.328-0.066-0.448-0.187c-0.741-0.74-1.729-1.148-2.777-1.148c-1.05,0-2.038,0.408-2.779,1.148
		c-0.956,0.956-1.482,2.229-1.482,3.584s0.527,2.63,1.483,3.586c1.226,1.225,2.856,1.898,4.592,1.898
		c1.736,0,3.368-0.674,4.592-1.898c1.56-1.562,2.42-3.642,2.42-5.854c0-2.212-0.86-4.291-2.42-5.852
		c-1.984-1.983-4.619-3.076-7.42-3.076l-0.242,0.003H15.612L15.36,11.751z"/>
	<path fill="#D6D3BD" d="M36.248,35.907c-0.902,0-1.635,0.733-1.635,1.636v57.324h3.269V37.543
		C37.882,36.641,37.148,35.907,36.248,35.907L36.248,35.907z"/>
	<path fill="#D6D3BD" d="M26.479,35.907c-0.901,0-1.634,0.733-1.634,1.636v57.324h3.269V37.543
		C28.113,36.641,27.38,35.907,26.479,35.907L26.479,35.907z"/>
	<path fill="#D6D3BD" d="M16.656,35.907c-0.9,0-1.633,0.733-1.633,1.636v57.324h3.268V37.543
		C18.291,36.641,17.558,35.907,16.656,35.907L16.656,35.907z"/>
	<rect x="4.217" y="4.542" fill="#D6D3BD" width="44.472" height="5.941"/>
</g>
<g>
	<rect x="55.303" y="16.809" fill="#63495E" width="32.197" height="43.691"/>
	<g>
		<path fill="#CC62C2" d="M77.164,33.652l-0.201-0.174c-0.1-0.086-0.166-0.205-0.187-0.335c-0.306-1.938-0.827-6.116-1.111-8.434
			c-0.173-1.418-0.754-2.689-1.68-3.678c-0.986-1.052-2.162-1.585-3.497-1.585c-1.735,0-2.749,0.72-3.339,1.479
			c0.383-0.179,0.809-0.317,1.263-0.36c3.05-0.29,5,0.848,5.351,3.123c0.003,0.021,0.005,0.043,0.007,0.065l0.219,6.336
			c0,0.003,0.001,0.006,0.001,0.009l0.279,7.995c2.346-1.283,4.479-1.967,5.318-2.21C78.794,35.056,77.751,34.158,77.164,33.652z"/>
		<path fill="#CC62C2" d="M67.136,49.6c0.604,0.233,1.262,0.528,1.939,0.901c0.004-0.092,0.077-0.802,0.114-1.063
			c0.744-5.202,3.827-8.134,6.348-9.695c2.333-1.441,4.561-1.983,5.355-2.142c-0.165-0.262-0.333-0.517-0.504-0.764
			c-0.056,0.009-0.109,0.017-0.156,0.029c-0.031,0.009-3.199,0.817-6.391,2.765c-4.202,2.564-6.457,5.79-6.704,9.584
			C67.131,49.326,67.139,49.468,67.136,49.6z"/>
		<path fill="#BFAE88" d="M69.443,34.027c-1.595,0.927-3.821,2.629-4.093,3.689c0.871,1.042,3.131,2.286,5.855,2.042
			c0.095-0.009,0.287-0.03,0.512-0.046c0.458-0.339,0.944-0.665,1.455-0.98l-0.26-7.438l-0.006,0.005
			c-0.801,0.687-1.823,1.05-2.876,1.027l-0.15-0.002c-0.085-0.002-0.171-0.008-0.256-0.015l0.094,1.191
			C69.737,33.714,69.629,33.92,69.443,34.027z"/>
		<path fill="#CCCBAC" d="M66.392,22.815l0.181,2.29l0.702-0.005c0.001,0,0.002,0,0.004,0c0.307,0,0.556,0.248,0.559,0.555
			c0.002,0.308-0.246,0.56-0.554,0.563l-0.622,0.004l0.164,2.077c0.027,0.353,0.114,0.697,0.259,1.024
			c0.143,0.326,0.34,0.623,0.581,0.882c0.577,0.619,1.394,0.983,2.239,1.002l0.149,0.003c0.783,0.018,1.536-0.252,2.127-0.759
			l0.684-0.584l-0.21-6.039c-0.34-2.069-2.434-2.312-4.137-2.149c-0.924,0.087-1.76,0.777-2.112,1.107
			C66.401,22.795,66.396,22.806,66.392,22.815z M68.88,25.449c0-0.152,0.062-0.298,0.173-0.404c0.108-0.105,0.255-0.162,0.409-0.154
			l1.605,0.069c0.309,0.014,0.547,0.274,0.533,0.583c-0.013,0.308-0.272,0.547-0.582,0.533l-1.021-0.045v1.651
			c0,0.308-0.251,0.558-0.56,0.558c-0.308,0-0.558-0.25-0.558-0.558V25.449z"/>
		<path fill="#99A58B" d="M57.807,44.494c0.599-0.552,1.166-1.074,1.557-1.564c1.284-5.544,4.18-6.704,5.466-6.942
			c-0.054-0.724-0.082-1.958,0.222-2.832c-1.023-1.042-1.425-3.614-1.421-5.613h-8.327v19.584
			C56.047,46.118,56.963,45.272,57.807,44.494z"/>
		<path fill="#ACAF8C" d="M77.849,32.768l0.045,0.039c0.915,0.789,2.618,2.255,3.382,3.351c2.54,3.643,4.391,8.767,5.475,12.788
			V27.542h-9.606C77.384,29.446,77.654,31.501,77.849,32.768z"/>
		<path fill="#91CADB" d="M55.303,16.809v9.617h8.377c0.029-0.313,0.07-0.593,0.124-0.823c0.358-1.563,1.104-2.674,1.465-3.144
			c0.238-1.455,1.62-4.13,5.22-4.13c1.656,0,3.107,0.652,4.312,1.939c1.089,1.162,1.771,2.65,1.974,4.305
			c0.066,0.535,0.145,1.169,0.229,1.852h9.747v-9.617H55.303z"/>
		<path fill="#B755A2" d="M65.713,28.385l-0.315-3.984c-0.194,0.412-0.379,0.9-0.506,1.452c-0.443,1.927,0.131,6.148,1.102,6.634
			c0.142,0.071,0.246,0.198,0.288,0.352c0.042,0.152,0.018,0.316-0.069,0.45c-0.235,0.369-0.308,1.156-0.3,1.914
			c0.224-0.199,0.466-0.403,0.734-0.614c0.77-0.603,1.526-1.092,1.933-1.343l-0.095-1.192c-0.617-0.23-1.182-0.6-1.636-1.085
			c-0.328-0.353-0.592-0.754-0.787-1.195C65.867,29.329,65.749,28.862,65.713,28.385z"/>
		<path fill="#BFB6D8" d="M81.362,38.65c-0.043,0.006-2.622,0.415-5.271,2.064c-3.272,2.037-5.215,4.985-5.78,8.771
			c-0.042,0.282-0.076,0.569-0.104,0.861c-0.017,0.18-0.02,0.53-0.026,0.825c0.397,0.265,0.796,0.558,1.188,0.882l5.021-0.913
			c0.007-0.001,0.015-0.002,0.023-0.003c0.096-0.013,2.358-0.302,3.796,1.535c0.19,0.243,0.147,0.593-0.096,0.784
			c-0.103,0.079-0.223,0.119-0.344,0.119c-0.165,0-0.33-0.075-0.439-0.215c-1.008-1.288-2.623-1.134-2.756-1.118l-4.164,0.756
			c0.199,0.2,0.397,0.407,0.589,0.626c0.204,0.231,0.183,0.583-0.049,0.788c-0.106,0.093-0.238,0.139-0.369,0.139
			c-0.155,0-0.309-0.063-0.419-0.189c-3.048-3.456-7.154-4.307-8.099-4.461c-0.264,0.211-0.44,0.502-0.524,0.868
			c-0.098,0.43-0.05,0.941,0.117,1.371l0.741-0.217c0.233-0.068,0.483,0.021,0.62,0.222c0.017,0.024,1.686,2.452,4.204,3.42
			c0.288,0.112,0.432,0.435,0.32,0.723c-0.085,0.222-0.296,0.358-0.521,0.358c-0.066,0-0.134-0.012-0.2-0.037
			c-0.456-0.176-0.887-0.398-1.292-0.646l-2.485,0.724l-0.667,1.698c-0.086,0.221-0.298,0.354-0.521,0.354
			c-0.067,0-0.136-0.012-0.203-0.038c-0.287-0.112-0.429-0.438-0.316-0.724l0.768-1.954c0.064-0.161,0.198-0.283,0.364-0.332
			l1.905-0.556c-0.362-0.298-0.691-0.604-0.979-0.896l-2.165,1.139v1.339c0,0.308-0.25,0.557-0.559,0.557s-0.56-0.249-0.56-0.557
			V55.04c0-0.207,0.116-0.397,0.3-0.494l2.207-1.16c-0.149-0.177-0.276-0.336-0.369-0.458c0,0-0.547,0.328-0.57,0.343
			c-1.382,0.922-3.56,0.931-3.579,0.929c-0.032-0.003-3.193-0.38-2.871-4.093c0.1-1.127,0.517-1.986,1.241-2.552
			c1.168-0.912,2.689-0.682,2.754-0.672c0.304,0.049,0.511,0.334,0.463,0.64c-0.048,0.304-0.334,0.509-0.638,0.463
			c-0.014-0.002-1.12-0.158-1.897,0.455c-0.467,0.368-0.74,0.962-0.81,1.764c-0.161,1.85,0.785,2.519,1.394,2.758
			c-0.857-2.024,0.079-3.442,0.795-3.958c0.25-0.18,0.599-0.124,0.779,0.127c0.179,0.248,0.124,0.595-0.123,0.776
			c-0.15,0.113-1.336,1.098-0.178,3.108c0.479-0.063,1.085-0.189,1.618-0.435c-0.26-0.646-0.329-1.394-0.176-2.062
			c0.166-0.726,0.576-1.306,1.185-1.678c0.105-0.066,0.23-0.093,0.352-0.079c0.082,0.009,0.874,0.104,2.027,0.453
			c0.003-0.025,0.006-0.05,0.007-0.074c0.201-3.082,1.652-5.882,4.239-8.238c-1.419-0.04-2.57-0.409-3.341-0.749
			c-1.135-0.501-2.087-1.217-2.611-1.96c-0.071-0.101-0.107-0.221-0.103-0.343c0.008-0.179,0.043-0.363,0.105-0.552
			c-1.141,0.474-2.878,1.83-3.817,5.697c0.494,0.072,1.118,0.226,1.677,0.551c0.002-0.206,0.007-0.413,0.021-0.626
			c0.101-1.514,0.492-2.669,0.51-2.717c0.1-0.292,0.417-0.447,0.71-0.347c0.29,0.1,0.445,0.417,0.347,0.708
			c-0.015,0.042-1.402,4.204,0.665,6.647c0.199,0.236,0.17,0.588-0.065,0.787c-0.104,0.089-0.233,0.132-0.361,0.132
			c-0.157,0-0.315-0.067-0.426-0.198c-0.601-0.708-1.012-1.588-1.226-2.6c-0.412-1.063-1.913-1.246-2.484-1.277
			c-0.383,0.414-0.831,0.828-1.299,1.259c-1.226,1.13-2.61,2.409-3.261,4.076v10.266H86.75v-5.085
			C86.572,52,84.628,44.145,81.508,38.63C81.446,38.639,81.395,38.646,81.362,38.65z M72.596,56.441
			c-0.11,0.134-0.271,0.204-0.433,0.204c-0.124,0-0.249-0.042-0.354-0.127l-3.489-2.86c-0.238-0.196-0.273-0.548-0.077-0.786
			c0.195-0.238,0.546-0.273,0.785-0.078l3.488,2.861C72.756,55.851,72.791,56.202,72.596,56.441z M80.239,42.058
			c-3.365-0.118-3.875,2.954-3.895,3.085l-0.769,4.683c-0.045,0.273-0.282,0.468-0.55,0.468c-0.031,0-0.062-0.002-0.093-0.008
			c-0.303-0.049-0.509-0.336-0.46-0.641l0.768-4.677c0.218-1.442,1.559-4.155,5.038-4.026c0.309,0.011,0.549,0.269,0.538,0.577
			C80.807,41.829,80.544,42.069,80.239,42.058z"/>
	</g>
	<g>
		<path fill="#DDA61D" stroke="#A57413" d="M91.256,58.865h-2.87V17.563c0-0.896-0.727-1.623-1.623-1.623H73.727v-3.307
			c0-0.896-0.727-1.623-1.624-1.623h-1.474c-0.896,0-1.623,0.727-1.623,1.623v3.307H55.969c-0.895,0-1.621,0.727-1.621,1.623v41.303
			h-2.871c-0.897,0-1.625,0.728-1.625,1.625v1.633c0,0.896,0.728,1.624,1.625,1.624h3.365l-4.818,23.292
			c-0.099,0.477,0.022,0.975,0.33,1.354c0.309,0.377,0.771,0.598,1.26,0.598h2.423c0.77,0,1.434-0.539,1.589-1.296l2.714-13.113
			h26.056l2.713,13.113c0.156,0.757,0.818,1.296,1.589,1.296h2.423c0,0,0.002,0,0.005,0c0.896,0,1.622-0.727,1.622-1.624
			c0-0.154-0.023-0.305-0.062-0.448l-4.794-23.171h3.365c0.898,0,1.624-0.728,1.624-1.624V60.49
			C92.88,59.594,92.154,58.865,91.256,58.865z M55.982,17.575H86.75v41.29H55.982V17.575z M83.723,71.335H59.01l1.57-7.588h21.572
			L83.723,71.335z"/>
	</g>
</g>
</svg>
