<?xml version="1.0" encoding="utf-8"?>
<!-- Generator: Adobe Illustrator 14.0.0, SVG Export Plug-In . SVG Version: 6.00 Build 43363)  -->
<!DOCTYPE svg PUBLIC "-//W3C//DTD SVG 1.1//EN" "http://www.w3.org/Graphics/SVG/1.1/DTD/svg11.dtd">
<svg version="1.1" id="Layer_1" xmlns="http://www.w3.org/2000/svg" xmlns:xlink="http://www.w3.org/1999/xlink" x="0px" y="0px"
	 width="100px" height="100px" viewBox="0 0 100 100" enable-background="new 0 0 100 100" xml:space="preserve">
<g>
	<g>
		
			<rect x="7.321" y="13.51" transform="matrix(0.9659 -0.2588 0.2588 0.9659 -9.6409 7.6903)" fill="#D8D4D0" stroke="#A09E9C" width="34.134" height="53.905"/>
		<path fill="#60301F" d="M24.127,45.235l0.649,2.42c-0.909,0.244-1.351,1.012-1.107,1.92c0.243,0.906,1.009,1.348,1.918,1.105
			l3.025-0.811c0.908-0.243,1.351-1.009,1.108-1.915c-0.244-0.909-1.01-1.353-1.918-1.109l-0.648-2.421
			c0.919,0.402,2.059,0.422,2.966,0.179c1.21-0.324,2.299-1.104,2.964-2.254s0.794-2.483,0.47-3.694
			c-0.324-1.209-1.103-2.299-2.254-2.964l-8.29-4.913c-0.766-0.443-1.675-0.2-2.117,0.567l-4.914,8.289
			c-0.665,1.151-0.795,2.483-0.471,3.693s1.104,2.299,2.254,2.962C19.912,47.662,22.676,47.084,24.127,45.235z"/>
	</g>
	<g>
		
			<rect x="58.544" y="13.51" transform="matrix(0.9659 0.2588 -0.2588 0.9659 13.0497 -18.1918)" fill="#D8D4D0" stroke="#A09E9C" width="34.134" height="53.905"/>
		<path fill="#60301F" d="M81.877,37.46c0.039-0.146,0.116-0.438,0.155-0.583c0.742-2.767-0.964-5.72-3.729-6.46
			s-5.718,0.964-6.459,3.73c-0.039,0.145-0.117,0.437-0.156,0.582c-2.342-0.003-4.343,1.645-4.966,3.974
			c-0.742,2.766,0.964,5.719,3.729,6.46c0.729,0.195,1.495,0.245,2.34,0.003l-0.546,2.038c-0.873-0.233-1.611,0.193-1.847,1.067
			c-0.232,0.873,0.194,1.61,1.066,1.844l2.913,0.781c0.872,0.234,1.611-0.191,1.845-1.065c0.234-0.875-0.192-1.612-1.064-1.846
			l0.546-2.038c0.649,0.486,1.299,0.972,2.027,1.167c2.765,0.742,5.719-0.964,6.46-3.73C84.813,41.056,83.721,38.733,81.877,37.46z"
			/>
	</g>
	<g>
		<rect x="29.074" y="2.503" fill="#EAE5DF" stroke="#BCB8B3" width="43.008" height="67.918"/>
		<path fill="#E24A0E" d="M49.142,47.101c0.411,0.41,1.026,0.614,1.437,0.614c0.409,0,1.23-0.205,1.437-0.614l9.022-10.049
			c2.461-2.666,2.461-7.177,0-9.843c-2.46-2.667-6.974-2.667-9.434,0l-1.025,1.23l-1.026-1.23c-2.461-2.667-6.972-2.667-9.434,0
			c-2.461,2.666-2.461,7.177,0,9.843L49.142,47.101z"/>
		<circle fill="#E24A0E" cx="33.186" cy="6.615" r="2.313"/>
		<circle fill="#E24A0E" cx="67.97" cy="6.615" r="1.97"/>
	</g>
</g>
<path fill="none" stroke="#5E0C72" d="M50,57.833"/>
<path fill="none" stroke="#5E0C72" d="M67.482,83.111"/>
<path fill="none" stroke="#5E0C72" d="M50,57.833"/>
<g>
	<path fill="#5E0C72" d="M54.369,65.813c0,2.413-1.956,4.369-4.369,4.369l0,0c-2.413,0-4.369-1.956-4.369-4.369v-2.313
		c0-2.413,1.956-4.369,4.369-4.369l0,0c2.413,0,4.369,1.956,4.369,4.369V65.813z"/>
	<path fill="#AA1DCC" stroke="#5E0C72" d="M95.321,80.386c0,9.4-7.621,17.021-17.021,17.021H21.7
		c-9.401,0-17.021-7.621-17.021-17.021l0,0c0-9.4,7.62-17.021,17.021-17.021h56.6C87.7,63.365,95.321,70.985,95.321,80.386
		L95.321,80.386z"/>
	<g>
		<path fill="#FFFFFF" d="M30.556,78.014h-5.621v-5.621c0-1.31-1.061-2.372-2.371-2.372c-1.311,0-2.372,1.063-2.372,2.372v5.621
			H14.57c-1.31,0-2.372,1.062-2.372,2.372s1.062,2.371,2.372,2.371h5.622v5.622c0,1.31,1.061,2.372,2.372,2.372
			c1.31,0,2.371-1.063,2.371-2.372v-5.622h5.621c1.31,0,2.372-1.061,2.372-2.371S31.866,78.014,30.556,78.014z"/>
		<g>
			<g>
				<path fill="#EF0034" stroke="#FFFFFF" stroke-linecap="round" stroke-linejoin="round" d="M80.941,72.238
					c-0.002,2.097-1.703,3.796-3.799,3.796s-3.795-1.699-3.795-3.796c-0.002-2.098,1.697-3.797,3.795-3.796
					C79.24,68.442,80.941,70.143,80.941,72.238z"/>
				<circle fill="#00E215" stroke="#FFFFFF" stroke-linecap="round" stroke-linejoin="round" cx="77.144" cy="88.533" r="3.796"/>
			</g>
			<g>
				<path fill="#0012ED" stroke="#FFFFFF" stroke-linecap="round" stroke-linejoin="round" d="M85.292,84.183
					c-2.097-0.002-3.797-1.701-3.797-3.798s1.7-3.795,3.797-3.795c2.098-0.002,3.796,1.697,3.796,3.794
					C89.088,82.482,87.388,84.183,85.292,84.183z"/>
				<path fill="#FFF200" stroke="#FFFFFF" stroke-linecap="round" stroke-linejoin="round" d="M68.997,84.181
					c-2.096,0.002-3.798-1.7-3.796-3.797c-0.002-2.098,1.698-3.796,3.794-3.794c2.099-0.002,3.799,1.698,3.799,3.795
					S71.094,84.181,68.997,84.181z"/>
			</g>
		</g>
		<g>
			<path fill="#FFFFFF" d="M49.357,72.238c0,0.71-0.575,1.285-1.285,1.285h-5.14c-0.71,0-1.285-0.575-1.285-1.285l0,0
				c0-0.71,0.575-1.285,1.285-1.285h5.14C48.782,70.953,49.357,71.528,49.357,72.238L49.357,72.238z"/>
			<path fill="#FFFFFF" d="M58.737,72.238c0,0.71-0.576,1.285-1.285,1.285h-5.14c-0.71,0-1.284-0.575-1.284-1.285l0,0
				c0-0.71,0.574-1.285,1.284-1.285h5.14C58.161,70.953,58.737,71.528,58.737,72.238L58.737,72.238z"/>
		</g>
	</g>
</g>
<g>
	<path fill="#5E0C72" d="M50.979,84.042c0,0-2.668,0-7.084,0c-4.417,0-0.917,13.417-20,13.417s27.084,0,27.084,0V84.042z"/>
	<path fill="#5E0C72" d="M49.02,84.042c0,0,2.668,0,7.084,0s0.916,13.417,20,13.417c19.082,0-27.084,0-27.084,0V84.042z"/>
</g>
</svg>
