<?xml version="1.0" encoding="utf-8"?>
<!-- Generator: Adobe Illustrator 14.0.0, SVG Export Plug-In . SVG Version: 6.00 Build 43363)  -->
<!DOCTYPE svg PUBLIC "-//W3C//DTD SVG 1.1//EN" "http://www.w3.org/Graphics/SVG/1.1/DTD/svg11.dtd">
<svg version="1.1" id="Layer_1" xmlns="http://www.w3.org/2000/svg" xmlns:xlink="http://www.w3.org/1999/xlink" x="0px" y="0px"
	 width="100px" height="100px" viewBox="0 0 100 100" enable-background="new 0 0 100 100" xml:space="preserve">
<g>
	<g>
		<circle fill="#F2EBB8" cx="50.264" cy="49.949" r="44.449"/>
		<g>
			<circle fill="#95BF45" cx="27.556" cy="28.077" r="24.901"/>
			<rect x="23.073" y="34.232" fill="#7C510D" width="8.965" height="61.197"/>
			<g>
				<circle fill="#95BF45" cx="38.901" cy="38.331" r="12.573"/>
				<circle fill="#95BF45" cx="15.715" cy="38.331" r="12.573"/>
			</g>
			<g>
				<path fill="none" stroke="#688921" stroke-linecap="round" d="M28.322,45.054c0,0-9.663-8.124-1.24-15.464
					c8.009-6.98,17.9,6.212,10.799,7.963"/>
				<path fill="none" stroke="#688921" stroke-linecap="round" d="M28.704,28.433c0,0,4.161-8.688-6.725-12.748
					c-10.349-3.861-12.154,8.966-5.21,8.808"/>
				<path fill="none" stroke="#688921" stroke-linecap="round" d="M27.452,19.222c0,0-3.188-6.155,4.255-9.396
					c7.075-3.083,8.761,6.128,3.921,6.212"/>
			</g>
		</g>
	</g>
	<path fill="#95BF45" d="M97.504,94.652c0,1.285-1.043,2.329-2.33,2.329H4.985c-1.286,0-2.329-1.044-2.329-2.329l0,0
		c0-1.288,1.043-2.329,2.329-2.329h90.188C96.461,92.323,97.504,93.364,97.504,94.652L97.504,94.652z"/>
	<g>
		<g>
			<path fill="none" stroke="#D39C00" d="M79.996,42.288c0,0,3.697-0.354,3.697,2.044c0,2.399-2.088,5.708-3.627,5.708
				C80.066,47.981,79.996,42.288,79.996,42.288z"/>
			<rect x="68.83" y="40.375" fill="#F9E600" width="11.166" height="13.855"/>
			<g>
				<path fill="#D39C00" d="M69.366,53.95h10.387v-2.083H69.366V53.95z M80.289,54.219c0,0.146-0.121,0.268-0.269,0.268H69.099
					c-0.147,0-0.269-0.121-0.269-0.268V40.375c0-0.971,0.538-1.841,1.404-2.27l0.194-0.096L70.47,37.8
					c0.298-1.434,1.575-2.475,3.034-2.475c1.025,0,1.98,0.503,2.554,1.346l0.146,0.213l0.256-0.023
					c0.102-0.009,0.203-0.013,0.302-0.013c1.945,0,3.527,1.582,3.527,3.526V54.219z M69.366,51.331h10.387V40.643H69.366V51.331z
					 M73.504,35.861c-1.33,0-2.453,1.042-2.555,2.372c-0.008,0.109-0.082,0.203-0.186,0.235c-0.518,0.163-0.938,0.517-1.179,0.998
					l-0.326,0.64h10.539l-0.162-0.563c-0.37-1.272-1.55-2.159-2.874-2.159c-0.214,0-0.433,0.025-0.65,0.074
					c-0.019,0.004-0.038,0.006-0.058,0.006c-0.104,0-0.197-0.059-0.241-0.151C75.38,36.417,74.494,35.861,73.504,35.861
					L73.504,35.861z"/>
				<path fill="#FFF7AB" d="M74.414,49.684c0.325,0,0.591-0.265,0.591-0.59v-6.212c0-0.327-0.266-0.591-0.591-0.591
					c-0.327,0-0.592,0.265-0.592,0.591v6.212C73.822,49.419,74.087,49.684,74.414,49.684z"/>
				<path fill="#FFF7AB" d="M77.144,49.684c0.326,0,0.59-0.265,0.59-0.59v-6.212c0-0.327-0.264-0.591-0.59-0.591
					c-0.325,0-0.59,0.265-0.59,0.591v6.212C76.554,49.419,76.818,49.684,77.144,49.684z"/>
				<path fill="#FFF7AB" d="M71.683,49.684c0.327,0,0.592-0.265,0.592-0.59v-6.212c0-0.327-0.265-0.591-0.592-0.591
					c-0.326,0-0.59,0.265-0.59,0.591v6.212C71.093,49.419,71.356,49.684,71.683,49.684z"/>
			</g>
			<path fill="#FFFFFF" d="M73.504,35.861c-1.33,0-2.453,1.042-2.555,2.372c-0.008,0.109-0.082,0.203-0.186,0.235
				c-0.518,0.163-0.938,0.517-1.179,0.998l-0.326,0.64h10.539l-0.162-0.563c-0.37-1.272-1.55-2.159-2.874-2.159
				c-0.214,0-0.433,0.025-0.65,0.074c-0.019,0.004-0.038,0.006-0.058,0.006c-0.104,0-0.197-0.059-0.241-0.151
				C75.38,36.417,74.494,35.861,73.504,35.861L73.504,35.861z"/>
			<path fill="#FFFFFF" d="M78.992,42.893c0,0.28-0.228,0.508-0.507,0.508l0,0c-0.282,0-0.511-0.228-0.511-0.508v-3.205
				c0-0.281,0.229-0.509,0.511-0.509l0,0c0.279,0,0.507,0.228,0.507,0.509V42.893z"/>
			<path fill="#FFFFFF" d="M77.386,41.066c0,0.297-0.242,0.536-0.537,0.536l0,0c-0.297,0-0.536-0.239-0.536-0.536v-1.789
				c0-0.297,0.239-0.537,0.536-0.537l0,0c0.295,0,0.537,0.24,0.537,0.537V41.066z"/>
		</g>
		<g>
			<path fill="#7C4F00" d="M59.02,58.252c0.402,0,0.728,0.327,0.728,0.73L49.473,94.7c0,0.403-0.326,0.729-0.728,0.729H43.53
				c-0.403,0-0.73-0.326-0.73-0.729l10.274-35.718c0-0.403,0.327-0.73,0.73-0.73H59.02z"/>
			<path fill="#7C4F00" d="M74.029,58.252c-0.4,0-0.729,0.327-0.729,0.73L83.576,94.7c0,0.403,0.325,0.729,0.728,0.729h5.216
				c0.402,0,0.729-0.326,0.731-0.729L79.977,58.982c-0.002-0.403-0.329-0.73-0.731-0.73H74.029z"/>
			<path fill="#DDA61D" stroke="#775200" d="M90.251,60.86c0,0.403-0.327,0.729-0.729,0.729H43.528
				c-0.402,0-0.729-0.325-0.729-0.729v-5.216c0-0.403,0.327-0.729,0.729-0.729h45.993c0.402,0,0.729,0.326,0.729,0.729V60.86z"/>
			<path fill="#DDA61D" stroke="#775200" d="M97.504,77.222c0,0.403-0.325,0.731-0.73,0.731H36.827
				c-0.403,0-0.729-0.328-0.729-0.731v-5.214c0-0.402,0.327-0.729,0.729-0.729h59.947c0.405,0,0.73,0.327,0.73,0.729V77.222z"/>
		</g>
	</g>
</g>
</svg>
