<?xml version="1.0" encoding="utf-8"?>
<!-- Generator: Adobe Illustrator 14.0.0, SVG Export Plug-In . SVG Version: 6.00 Build 43363)  -->
<!DOCTYPE svg PUBLIC "-//W3C//DTD SVG 1.1//EN" "http://www.w3.org/Graphics/SVG/1.1/DTD/svg11.dtd">
<svg version="1.1" id="Layer_1" xmlns="http://www.w3.org/2000/svg" xmlns:xlink="http://www.w3.org/1999/xlink" x="0px" y="0px"
	 width="100px" height="100px" viewBox="0 0 100 100" enable-background="new 0 0 100 100" xml:space="preserve">
<path fill="#4C3C2D" stroke="#302216" d="M4.188,30.825l2,64.55c0,0,33.771,0,36.729,0s3.5,2,7.083,2s4.125-2,7.083-2
	s36.729,0,36.729,0l2-64.55H4.188z"/>
<g>
	<path fill="#A09F8E" d="M50,92.87H8.346l-2-67.12c0,0,30.103,0,35.408,0c5.306,0,8.247,5.075,8.247,5.075V92.87z"/>
	<path fill="#AFAE9E" d="M50,92.87h41.654l2-67.12c0,0-30.103,0-35.408,0c-5.305,0-8.246,5.075-8.246,5.075V92.87z"/>
</g>
<g>
	<path fill="#D8D7C3" d="M50,92.87l-38.667-2l-2-68.954c0,0,28.043,2,32.984,2C47.26,23.917,50,29.13,50,29.13V92.87z"/>
	<path fill="#EDECE2" d="M50,92.87l38.667-2l2-68.954c0,0-28.042,2-32.985,2C52.74,23.917,50,29.13,50,29.13V92.87z"/>
</g>
<g>
	<path fill="#F9B65F" d="M76.471,61.158l-3.344,7.279c0.048,0.097,0.092,0.197,0.129,0.301c0.656,1.769-0.247,3.734-2.016,4.389
		c-1.769,0.656-3.734-0.246-4.389-2.015c-0.656-1.77,0.246-3.735,2.015-4.39c0.104-0.039,0.206-0.07,0.311-0.099l3.344-7.28
		c-3.676-1.187-6.976-0.813-8.271,2.006c-0.721,1.569-0.52,5.014-1.501,6.601c-2.012,3.257-5.69,3.487-7.064,6.48
		c-2.126,4.627,1.032,8.263,7.204,11.097c6.168,2.835,10.984,2.86,13.11-1.767c1.374-2.994-0.847-5.934,0.312-9.582
		c0.563-1.777,3.308-3.871,4.029-5.44C81.635,65.918,79.767,63.173,76.471,61.158z M69.469,79.677l-0.252,0.549
		c-0.194,0.426-0.695,0.612-1.123,0.416L63.2,78.395c-0.425-0.195-0.611-0.698-0.416-1.123l0.253-0.55
		c0.193-0.424,0.696-0.611,1.121-0.415l4.896,2.248C69.479,78.749,69.665,79.252,69.469,79.677z"/>
	<g>
		<path fill="none" stroke="#91632C" d="M64.158,76.307c-0.425-0.196-0.928-0.009-1.121,0.415l-0.253,0.55
			c-0.195,0.425-0.009,0.928,0.416,1.123l4.894,2.247c0.428,0.196,0.929,0.01,1.123-0.416l0.252-0.549
			c0.196-0.425,0.01-0.928-0.415-1.122L64.158,76.307z"/>
		<path fill="none" stroke="#91632C" d="M84.824,42.498l-3.592-1.649c-0.766-0.352-1.667,0.045-1.924,0.847l-1.936,6.014
			c-0.105,0.331-0.082,0.675,0.043,0.973l-8.239,17.941c-0.104,0.028-0.207,0.06-0.311,0.099c-1.769,0.654-2.671,2.62-2.015,4.39
			c0.654,1.769,2.62,2.671,4.389,2.015c1.769-0.654,2.672-2.62,2.016-4.389c-0.037-0.104-0.081-0.204-0.129-0.301l8.24-17.939
			c0.31-0.101,0.586-0.305,0.767-0.601l3.303-5.387C85.877,43.793,85.59,42.85,84.824,42.498z"/>
	</g>
</g>
<g>
	<path fill="#587FDD" d="M32.435,81.985l-1.96,4.706h-3.138l7.843-18.822h3.137l7.843,18.822h-3.138l-1.96-4.706H32.435z
		 M33.369,79.182h6.023l-3.011-7.215L33.369,79.182z"/>
	<path fill="#9B58DB" d="M24.121,64.237l3.513,3.515l-1.302,3.137l-4.423-4.454l-5.176,5.175l-2.197-2.229l5.146-5.143l-1.38-1.379
		c-0.832-0.833-1.569-2.04-2.04-3.327h3.451c0.235,0.438,0.518,0.832,0.799,1.099l1.396,1.411l1.38-1.377
		c0.941-0.975,1.756-2.951,1.756-4.268H12.497v-3.139h7.843v-3.137h3.138v3.137h7.842v3.139h-3.137c0,2.147-1.161,4.939-2.667,6.462
		l-1.412,1.379H24.121z"/>
</g>
<g>
	<path fill="#C1C0B8" stroke="#918F83" d="M49.912,65.516c-4.304,0-6.803-2.668-6.803-7.139l-0.032-3.064
		c1.653,0.566,3.906,1.01,6.922,1.01c2.976,0,5.232-0.477,6.9-1.06v3.114C56.899,62.914,54.368,65.516,49.912,65.516L49.912,65.516z
		"/>
	<path fill="#FCFAE6" stroke="#E8E39A" d="M63.504,39.412c-3.123,2.727-6.639,5.545-6.639,10.479v2.904
		c-1.091,0.609-3.102,1.334-6.905,1.334c-3.99,0-5.883-0.707-6.823-1.255V49.89c0-3.921-3.067-6.413-6.011-9.051
		c-3.901-3.495-7.892-7.458-7.892-16.122C29.233,13.03,38.312,3.521,49.999,3.521c11.688,0,20.767,9.509,20.767,21.198
		C70.766,32.693,67.286,36.108,63.504,39.412L63.504,39.412z"/>
	<path fill="none" stroke="#E8E39A" d="M51.548,53.785c0,0,0-24.868,0-27.368s-1.571-9-9.405-7.167"/>
	<path fill="none" stroke="#E8E39A" d="M48.429,53.785c0,0,0-24.868,0-27.368s1.571-9,9.404-7.167"/>
	<path fill="#C1C0B8" stroke="#918F83" d="M43.109,58.71c0,0,2.992,1,6.879,1s6.911-1,6.911-1"/>
	<path fill="#C1C0B8" stroke="#918F83" d="M43.609,61.865c0,0,2.775,0.928,6.38,0.928c3.605,0,6.41-0.928,6.41-0.928"/>
</g>
</svg>
