<?xml version="1.0" encoding="utf-8"?>
<!-- Generator: Adobe Illustrator 14.0.0, SVG Export Plug-In . SVG Version: 6.00 Build 43363)  -->
<!DOCTYPE svg PUBLIC "-//W3C//DTD SVG 1.1//EN" "http://www.w3.org/Graphics/SVG/1.1/DTD/svg11.dtd">
<svg version="1.1" id="Layer_1" xmlns="http://www.w3.org/2000/svg" xmlns:xlink="http://www.w3.org/1999/xlink" x="0px" y="0px"
	 width="100px" height="100px" viewBox="0 0 100 100" enable-background="new 0 0 100 100" xml:space="preserve">
<g>
	<g>
		<defs>
			<path id="SVGID_1_" d="M42.307,61.085c-8.211,0-17.132-3.616-22.729-9.213C8.431,40.723,6.453,24.561,15.169,15.843
				c3.546-3.546,8.387-5.421,13.998-5.421c7.754,0,15.784,3.584,22.031,9.83c5.234,5.235,8.445,12.252,9.043,19.759
				c0.535,6.753-1.195,12.835-4.633,16.271C51.64,60.252,46.185,61.085,42.307,61.085L42.307,61.085z"/>
		</defs>
		<clipPath id="SVGID_2_">
			<use xlink:href="#SVGID_1_"  overflow="visible"/>
		</clipPath>
		<g clip-path="url(#SVGID_2_)">
			<g>
				<line fill="none" stroke="#78889B" x1="73.257" y1="73.933" x2="10.664" y2="11.34"/>
				<line fill="none" stroke="#78889B" x1="66.997" y1="80.192" x2="4.405" y2="17.6"/>
				<line fill="none" stroke="#78889B" x1="79.517" y1="67.674" x2="16.924" y2="5.081"/>
			</g>
			<g>
				<line fill="none" stroke="#78889B" x1="54.479" y1="92.711" x2="-8.113" y2="30.118"/>
				<line fill="none" stroke="#78889B" x1="48.22" y1="98.971" x2="-14.373" y2="36.377"/>
				<line fill="none" stroke="#78889B" x1="60.737" y1="86.451" x2="-1.854" y2="23.859"/>
			</g>
			<g>
				<line fill="none" stroke="#78889B" x1="92.034" y1="55.156" x2="29.442" y2="-7.438"/>
				<line fill="none" stroke="#78889B" x1="85.774" y1="61.414" x2="23.183" y2="-1.178"/>
				<line fill="none" stroke="#78889B" x1="98.294" y1="48.896" x2="35.701" y2="-13.697"/>
			</g>
			<g>
				<line fill="none" stroke="#78889B" x1="-1.854" y1="61.414" x2="60.737" y2="-1.178"/>
				<line fill="none" stroke="#78889B" x1="-8.113" y1="55.156" x2="54.479" y2="-7.438"/>
				<line fill="none" stroke="#78889B" x1="4.405" y1="67.674" x2="66.997" y2="5.081"/>
			</g>
			<line fill="none" stroke="#78889B" x1="-14.373" y1="48.896" x2="48.22" y2="-13.697"/>
			<g>
				<line fill="none" stroke="#78889B" x1="10.664" y1="73.933" x2="73.257" y2="11.34"/>
				<line fill="none" stroke="#78889B" x1="4.405" y1="67.674" x2="66.997" y2="5.081"/>
				<line fill="none" stroke="#78889B" x1="16.924" y1="80.192" x2="79.517" y2="17.6"/>
			</g>
			<g>
				<line fill="none" stroke="#78889B" x1="29.442" y1="92.711" x2="92.034" y2="30.118"/>
				<line fill="none" stroke="#78889B" x1="23.183" y1="86.451" x2="85.774" y2="23.859"/>
				<line fill="none" stroke="#78889B" x1="35.701" y1="98.971" x2="98.294" y2="36.377"/>
			</g>
		</g>
	</g>
	<g>
		<path fill="#9AAAC1" stroke="#78889B" d="M10.993,11.67c-5.494,5.491-8.041,13.22-7.174,21.759
			c0.844,8.318,4.851,16.442,11.284,22.875c6.258,6.259,14.611,10.066,23.522,10.723c7.211,0.533,13.799-1.087,18.588-4.486
			l13.912,13.911l4.648-4.649L61.862,57.89c3.4-4.788,5.021-11.374,4.488-18.587c-0.656-8.911-4.465-17.266-10.723-23.523
			C49.195,9.347,41.071,5.34,32.752,4.496C24.213,3.628,16.484,6.176,10.993,11.67z M51.513,19.893
			c11.223,11.223,11.426,29.095,4.111,36.408c-8.945,8.945-27.231,5.066-36.409-4.11C8.046,41.02,6.202,24.688,15.105,15.783
			C24.01,6.879,40.342,8.722,51.513,19.893z"/>
		<path fill="#DD4A10" d="M77.108,71.217c-0.619-0.617-1.629-0.617-2.246,0L70.54,75.54c-0.617,0.617-0.617,1.626,0,2.245
			l18.699,18.697c0.615,0.616,1.627,0.616,2.242,0l4.324-4.324c0.617-0.616,0.617-1.626,0-2.243L77.108,71.217z"/>
	</g>
	<g>
		<circle fill="#D0D6D8" cx="25.671" cy="73.268" r="22.314"/>
		<path fill="#C0CBCE" d="M25.673,95.641c-3.019,0-5.949-0.591-8.71-1.757c-2.666-1.129-5.058-2.741-7.111-4.794
			c-2.053-2.053-3.666-4.445-4.795-7.113c-1.165-2.747-1.758-5.675-1.763-8.705c0-3.018,0.592-5.948,1.758-8.709
			c1.13-2.668,2.743-5.061,4.795-7.112c2.059-2.054,4.453-3.669,7.116-4.8c2.761-1.166,5.691-1.758,8.71-1.758
			c3.018,0,5.949,0.592,8.711,1.758c2.664,1.129,5.059,2.742,7.11,4.795c2.052,2.052,3.666,4.445,4.794,7.111
			c1.166,2.759,1.758,5.689,1.758,8.711c0,3.02-0.592,5.95-1.758,8.709c-1.129,2.667-2.742,5.061-4.794,7.113
			c-2.055,2.053-4.447,3.665-7.111,4.794C31.623,95.05,28.691,95.641,25.673,95.641L25.673,95.641z M16.457,93.511
			c2.897,1.318,5.995,1.988,9.207,1.988c1.064,0,2.12-0.073,3.139-0.221l0.061-0.009l0.057-0.024
			c0.26-0.112,0.584-0.264,0.967-0.456l-0.24-0.864c-0.548,0.043-1.102,0.064-1.644,0.064l0,0c-1.027,0-2.044-0.076-3.023-0.228
			c-1.407-0.22-2.788-0.597-4.102-1.12l-0.103-0.039l-0.107,0.01c-0.787,0.069-1.55,0.105-2.268,0.105
			c-0.605,0-1.182-0.025-1.71-0.077L16.457,93.511z M18.722,86.952l0.084,0.269c0.357,1.154,1.168,3.336,2.562,4.984l0.077,0.092
			l0.113,0.042c1.109,0.41,2.278,0.714,3.474,0.902c0.954,0.148,1.949,0.226,2.956,0.226c0.612,0,1.237-0.028,1.859-0.085
			c1.493-0.137,2.72-0.414,3.485-0.623l0.073-0.021l0.063-0.043c2.126-1.449,3.831-3.037,5.066-4.715l0.14-0.192l-2.648-7.932
			l-9.105-0.843L18.722,86.952z M45.542,69.298l-5.156,1.248l-3.907,9.027l2.663,7.975l0.381,0.005c0.552,0,1.58-0.081,2.332-0.14
			c0.259-0.021,0.522-0.042,0.666-0.05l0.227,0.131l0.246-0.303c1.059-1.313,1.971-2.761,2.711-4.301
			c0.846-1.755,1.455-3.609,1.813-5.515l0.01-0.05l-0.002-0.052c-0.08-2.178-0.377-6.084-1.479-7.768l-0.023-0.036l-0.211-0.219
			L45.542,69.298z M7.837,70.322l-0.019,0.156c-0.152,1.272-0.171,2.564-0.055,3.843c0.148,1.578,0.498,3.162,1.042,4.708
			c0.887,2.545,2.018,4.17,2.143,4.348l0.04,0.055l0.055,0.043c0.135,0.104,3.352,2.564,7.054,3.099l0.222,0.032l8.333-8.069
			l-1.894-9.862L13.585,64.58L7.837,70.322z M8.696,86.498c0.478-1.47,0.877-2.652,1.186-3.513l0.071-0.199l-0.104-0.183
			c-0.587-1.024-1.114-2.182-1.524-3.349c-0.562-1.589-0.925-3.221-1.08-4.851c-0.117-1.246-0.11-2.49,0.02-3.698l0.021-0.195
			l-0.128-0.149c-1.122-1.314-1.762-2.243-2.073-3.012l-0.506-1.251L4.22,67.4c-0.513,1.872-0.783,3.902-0.783,5.871
			c0,2.927,0.6,5.903,1.733,8.61c0.598,1.425,1.244,2.624,1.975,3.668c0.104,0.146,0.214,0.287,0.325,0.427l0.162,0.208
			c0.016,0.021,0.036,0.046,0.063,0.076c0.031,0.036,0.114,0.133,0.135,0.173c-0.013-0.024-0.036-0.108-0.003-0.215L8.696,86.498z
			 M37.49,54.548c-1.147,0.097-3.025,0.26-4.313,0.384l-0.452,0.044l0.802,8.693l6.647,6.388l5.184-1.252
			c0.469-0.105,0.455-0.195,0.088-2.499l-0.027-0.165c-0.385-2.345-0.832-4.586-2.068-6.341c-1.219-1.725-2.908-3.34-5.02-4.803
			c-0.114-0.08-0.232-0.16-0.352-0.24l-0.327-0.223L37.49,54.548z M22.552,52.182c-1.764,0.6-3.432,1.479-4.955,2.613
			c-1.208,0.903-2.33,1.971-3.335,3.172l-0.096,0.114l-0.382,6.016l11.202,4.103l8.008-4.577l-0.789-8.584l-0.228-0.113
			c-0.046-0.023-0.089-0.046-0.128-0.069c-0.91-0.595-3.65-2.068-9.099-2.695l-0.102-0.012L22.552,52.182z M19.438,51.922
			c-2.841,0.83-5.568,2.273-7.889,4.177c-1.241,1.021-2.376,2.182-3.373,3.447c-0.047,0.063-0.34,0.444-0.34,0.444
			c1.92-1.727,4.408-1.769,5.59-2.007l0.161-0.032l0.104-0.127c1.064-1.31,2.262-2.465,3.559-3.435
			c0.823-0.615,1.69-1.161,2.575-1.62l-0.21-0.861c0.003,0,0.025,0.001,0.053,0.007l-0.115-0.026L19.438,51.922z"/>
		<path fill="#40423C" d="M29.993,93.75c1.465-0.143,2.674-0.416,3.438-0.624l0.138-0.038l0.114-0.077
			c2.16-1.474,3.896-3.09,5.159-4.805l0.202-0.278l0.476,0.005c0.585,0,1.656-0.085,2.365-0.141c0,0,0.25-0.021,0.329-0.026
			c-0.316,0.361-0.646,0.714-0.988,1.055c-2.02,2.018-4.372,3.604-6.991,4.714c-1.284,0.542-2.605,0.958-3.956,1.245L29.993,93.75z
			 M16.171,93.109c-2.245-1.075-4.276-2.516-6.051-4.289c-0.648-0.648-1.253-1.332-1.811-2.048l0.631,0.203l0.118-0.36
			c0.479-1.473,0.876-2.651,1.182-3.501l0.029-0.083c0.194,0.315,0.329,0.51,0.369,0.565l0.031,0.044l0.084,0.09l0.058,0.046
			c0.139,0.107,3.451,2.628,7.23,3.174l0.294,0.042l0.105,0.341c0.353,1.135,1.132,3.24,2.467,4.912l-0.077-0.03l-0.199,0.019
			c-0.775,0.069-1.527,0.104-2.231,0.104c-0.602,0-1.164-0.024-1.673-0.075l-0.32-0.03L16.171,93.109z M27.06,78.645l-1.937-10.086
			l8.115-4.639l6.782,6.516l-3.916,9.048L27.06,78.645z M47.656,73.951c-0.223-1.852-0.615-3.618-1.291-4.652l-0.068-0.091
			l-0.311-0.323c0.205-0.323,0.098-0.999-0.162-2.631l-0.029-0.175c-0.164-0.999-0.34-1.981-0.582-2.922
			c0.262,0.505,0.502,1.021,0.727,1.548c1.146,2.714,1.729,5.595,1.729,8.563C47.667,73.496,47.664,73.725,47.656,73.951
			L47.656,73.951z M7.446,70.114c-1.096-1.283-1.716-2.18-2.011-2.906l-0.511-1.265c0.146-0.415,0.306-0.825,0.478-1.233
			c0.685-1.617,1.551-3.133,2.588-4.53l0.102,0.094c1.49-1.341,3.387-1.613,4.643-1.794c0.291-0.042,0.551-0.079,0.768-0.123
			l0.27-0.056l-0.377,5.931l-5.92,5.917L7.446,70.114z M32.044,54.528c-0.93-0.607-3.72-2.109-9.249-2.745l-0.188-0.021l-0.178,0.06
			c-0.759,0.259-1.499,0.566-2.219,0.924l-0.182-0.742c1.83-0.485,3.719-0.729,5.644-0.729c2.967,0,5.848,0.581,8.563,1.728
			c0.853,0.361,1.676,0.772,2.469,1.232c-1.112,0.095-2.528,0.22-3.563,0.32l-0.83,0.079l0.003,0.035
			C32.314,54.668,32.075,54.547,32.044,54.528z"/>
	</g>
	<g>
		<circle fill="#C0E872" cx="81.11" cy="20.741" r="15.597"/>
		<g>
			<path fill="#E4F7DA" d="M86.567,26.197c2.699-2.702,6.359-3.986,10.023-3.643c0.084-0.73,0.117-1.465,0.098-2.198
				c-4.271-0.372-8.529,1.137-11.678,4.285c-3.148,3.147-4.656,7.406-4.287,11.678c0.734,0.017,1.471-0.014,2.199-0.099
				C82.579,32.559,83.864,28.898,86.567,26.197z"/>
			<path fill="#E4F7DA" d="M79.294,5.261c0.344,3.661-0.941,7.321-3.643,10.022c-2.699,2.701-6.359,3.985-10.021,3.643
				c-0.084,0.73-0.117,1.464-0.098,2.199c4.27,0.37,8.527-1.139,11.676-4.287c3.146-3.148,4.656-7.406,4.285-11.676
				C80.759,5.145,80.026,5.176,79.294,5.261z"/>
		</g>
	</g>
</g>
</svg>
