<?xml version="1.0" encoding="utf-8"?>
<!-- Generator: Adobe Illustrator 14.0.0, SVG Export Plug-In . SVG Version: 6.00 Build 43363)  -->
<!DOCTYPE svg PUBLIC "-//W3C//DTD SVG 1.1//EN" "http://www.w3.org/Graphics/SVG/1.1/DTD/svg11.dtd">
<svg version="1.1" id="Layer_1" xmlns="http://www.w3.org/2000/svg" xmlns:xlink="http://www.w3.org/1999/xlink" x="0px" y="0px"
	 width="226.773px" height="113.387px" viewBox="0 0 226.773 113.387" enable-background="new 0 0 226.773 113.387"
	 xml:space="preserve">
<g>
	<path fill="#ED1F24" d="M17.977,68.95c-5.055,0-9.073,4.018-9.073,9.074c0,6.609,4.148,11.018,19.442,23.459
		c15.296-12.441,19.443-16.85,19.443-23.459c0-5.057-4.018-9.074-9.073-9.074c-4.537,0-6.999,2.723-8.943,4.926l-1.426,1.686
		l-1.425-1.686C24.977,71.673,22.514,68.95,17.977,68.95z"/>
	<path fill="#4968B1" d="M73.918,96.918c0,0.38-0.168,0.728-0.438,0.979c-0.27,0.251-0.642,0.408-1.051,0.408h-2.821
		c-0.409,0-0.781-0.157-1.051-0.408c-0.271-0.252-0.438-0.6-0.438-0.979V80.783c0-0.381,0.167-0.728,0.438-0.979
		c0.27-0.253,0.642-0.409,1.051-0.409h2.821c0.409,0,0.781,0.156,1.051,0.409c0.27,0.251,0.438,0.598,0.438,0.979V96.918z
		 M100.625,82.296h-0.001c-0.181,0.258-0.144,0.591,0.071,0.808c0.267,0.323,2.299,2.953-0.934,4.419l-0.002-0.001
		c-0.333,0.151-0.482,0.512-0.354,0.828c0.096,0.269,1.159,3.409-1.337,4.405l-0.002-0.001c-0.291,0.116-0.456,0.392-0.428,0.67
		c0,0.02,0.813,4.362-3.126,4.178c-3.696-0.173-5.458,0.688-10.875,0.811c-4.911,0.111-7.299-1.841-7.299-1.841V80.783
		c0-0.066-0.016-0.128-0.021-0.191c1.375-0.616,9.116-4.615,7.816-16.457c1.968-0.334,8.27-0.467,5.538,12.428h-0.001
		c-0.076,0.358,0.174,0.707,0.559,0.776c0.099,0.02,0.196,0.017,0.288-0.002C93.565,76.972,106.22,74.303,100.625,82.296z"/>
	<g>
		<circle fill="#FBAC18" cx="141.74" cy="85.23" r="16"/>
		<g>
			<g>
				<g>
					
						<line fill="none" stroke="#FFFFFF" stroke-width="2" stroke-linecap="round" x1="133.842" y1="77.654" x2="138.837" y2="79.721"/>
					
						<line fill="none" stroke="#FFFFFF" stroke-width="2" stroke-linecap="round" x1="133.765" y1="82.04" x2="138.837" y2="79.721"/>
				</g>
				<g>
					
						<line fill="none" stroke="#FFFFFF" stroke-width="2" stroke-linecap="round" x1="149.639" y1="77.654" x2="144.644" y2="79.721"/>
					
						<line fill="none" stroke="#FFFFFF" stroke-width="2" stroke-linecap="round" x1="149.716" y1="82.04" x2="144.644" y2="79.721"/>
				</g>
			</g>
			<path fill="#FFFFFF" d="M149.646,87.899c0,4.366-3.54,7.906-7.905,7.906c-4.366,0-7.906-3.54-7.906-7.906
				C133.835,85.926,149.646,85.926,149.646,87.899z"/>
		</g>
	</g>
	<path fill="#844099" d="M187.252,89.676c0,0.381-0.168,0.728-0.438,0.979c-0.27,0.253-0.642,0.409-1.051,0.409h-2.821
		c-0.409,0-0.781-0.156-1.051-0.409c-0.271-0.251-0.438-0.598-0.438-0.979V73.541c0-0.38,0.167-0.728,0.438-0.979
		c0.27-0.251,0.642-0.408,1.051-0.408h2.821c0.409,0,0.781,0.157,1.051,0.408c0.27,0.252,0.438,0.6,0.438,0.979V89.676z
		 M203.853,93.122c-0.094-0.019-0.189-0.021-0.289-0.002c-0.385,0.069-0.635,0.418-0.559,0.776l0,0
		c2.732,12.895-3.57,12.762-5.537,12.428c1.299-11.842-6.441-15.841-7.816-16.457c0.005-0.063,0.021-0.125,0.021-0.191V73.888
		c0,0,2.388-1.952,7.299-1.841c5.416,0.123,7.178,0.983,10.875,0.811c3.939-0.185,3.125,4.158,3.125,4.178
		c-0.027,0.278,0.137,0.554,0.428,0.67l0.002-0.001c2.496,0.996,1.434,4.137,1.338,4.405c-0.129,0.316,0.02,0.677,0.354,0.828
		l0.002-0.001c3.232,1.466,1.201,4.096,0.934,4.419c-0.215,0.217-0.252,0.55-0.07,0.808l0,0
		C219.554,96.156,206.897,93.487,203.853,93.122z"/>
</g>
<g>
	<path fill="none" stroke="#ED1F24" stroke-width="3" stroke-linejoin="bevel" d="M17.977,12.258c-5.055,0-9.073,4.018-9.073,9.074
		c0,6.609,4.148,11.018,19.442,23.459c15.296-12.441,19.443-16.85,19.443-23.459c0-5.057-4.018-9.074-9.073-9.074
		c-4.537,0-6.999,2.723-8.943,4.926l-1.426,1.686l-1.425-1.686C24.977,14.98,22.514,12.258,17.977,12.258z"/>
	<path fill="none" stroke="#4968B1" stroke-width="3" stroke-linecap="round" stroke-linejoin="bevel" d="M73.918,40.226
		c0,0.38-0.168,0.728-0.438,0.979c-0.27,0.251-0.642,0.408-1.051,0.408h-2.821c-0.409,0-0.781-0.157-1.051-0.408
		c-0.271-0.252-0.438-0.6-0.438-0.979V24.091c0-0.381,0.167-0.728,0.438-0.979c0.27-0.253,0.642-0.409,1.051-0.409h2.821
		c0.409,0,0.781,0.156,1.051,0.409c0.27,0.251,0.438,0.598,0.438,0.979V40.226z M100.625,25.604h-0.001
		c-0.181,0.258-0.144,0.591,0.071,0.808c0.267,0.323,2.299,2.953-0.934,4.419l-0.002-0.001c-0.333,0.151-0.482,0.512-0.354,0.828
		c0.096,0.269,1.159,3.409-1.337,4.405l-0.002-0.001c-0.291,0.116-0.456,0.392-0.428,0.67c0,0.02,0.813,4.362-3.126,4.178
		c-3.696-0.173-5.458,0.688-10.875,0.811c-4.911,0.111-7.299-1.841-7.299-1.841V24.091c0-0.066-0.016-0.128-0.021-0.191
		c1.375-0.616,9.116-4.615,7.816-16.457c1.968-0.334,8.27-0.467,5.538,12.428h-0.001c-0.076,0.358,0.174,0.707,0.559,0.776
		c0.099,0.02,0.196,0.017,0.288-0.002C93.565,20.279,106.22,17.61,100.625,25.604z"/>
	<g>
		
			<circle fill="none" stroke="#FBAC18" stroke-width="3" stroke-linecap="round" stroke-linejoin="bevel" cx="141.74" cy="28.538" r="16"/>
		<g>
			<g>
				<g>
					
						<line fill="none" stroke="#FBAC18" stroke-width="3" stroke-linecap="round" stroke-linejoin="bevel" x1="133.842" y1="20.961" x2="138.837" y2="23.029"/>
					
						<line fill="none" stroke="#FBAC18" stroke-width="3" stroke-linecap="round" stroke-linejoin="bevel" x1="133.765" y1="25.347" x2="138.837" y2="23.029"/>
				</g>
				<g>
					
						<line fill="none" stroke="#FBAC18" stroke-width="3" stroke-linecap="round" stroke-linejoin="bevel" x1="149.639" y1="20.961" x2="144.644" y2="23.029"/>
					
						<line fill="none" stroke="#FBAC18" stroke-width="3" stroke-linecap="round" stroke-linejoin="bevel" x1="149.716" y1="25.347" x2="144.644" y2="23.029"/>
				</g>
			</g>
			<path fill="none" stroke="#FBAC18" stroke-width="3" stroke-linecap="round" stroke-linejoin="bevel" d="M149.646,31.207
				c0,4.366-3.54,7.906-7.905,7.906c-4.366,0-7.906-3.54-7.906-7.906C133.835,29.234,149.646,29.234,149.646,31.207z"/>
		</g>
	</g>
	<path fill="none" stroke="#844099" stroke-width="3" stroke-linecap="round" stroke-linejoin="bevel" d="M187.252,32.983
		c0,0.381-0.168,0.728-0.438,0.979c-0.27,0.253-0.642,0.409-1.051,0.409h-2.821c-0.409,0-0.781-0.156-1.051-0.409
		c-0.271-0.251-0.438-0.598-0.438-0.979V16.849c0-0.38,0.167-0.728,0.438-0.979c0.27-0.251,0.642-0.408,1.051-0.408h2.821
		c0.409,0,0.781,0.157,1.051,0.408c0.27,0.252,0.438,0.6,0.438,0.979V32.983z M203.853,36.43c-0.094-0.019-0.189-0.021-0.289-0.002
		c-0.385,0.069-0.635,0.418-0.559,0.776l0,0c2.732,12.895-3.57,12.762-5.537,12.428c1.299-11.842-6.441-15.841-7.816-16.457
		c0.005-0.063,0.021-0.125,0.021-0.191V17.195c0,0,2.388-1.952,7.299-1.841c5.416,0.123,7.178,0.983,10.875,0.811
		c3.939-0.185,3.125,4.158,3.125,4.178c-0.027,0.278,0.137,0.554,0.428,0.67l0.002-0.001c2.496,0.996,1.434,4.137,1.338,4.405
		c-0.129,0.316,0.02,0.677,0.354,0.828l0.002-0.001c3.232,1.466,1.201,4.096,0.934,4.419c-0.215,0.217-0.252,0.55-0.07,0.808l0,0
		C219.554,39.464,206.897,36.795,203.853,36.43z"/>
</g>
</svg>
