<?xml version="1.0" encoding="utf-8"?>
<!-- Generator: Adobe Illustrator 14.0.0, SVG Export Plug-In . SVG Version: 6.00 Build 43363)  -->
<!DOCTYPE svg PUBLIC "-//W3C//DTD SVG 1.1//EN" "http://www.w3.org/Graphics/SVG/1.1/DTD/svg11.dtd">
<svg version="1.1" id="Layer_1" xmlns="http://www.w3.org/2000/svg" xmlns:xlink="http://www.w3.org/1999/xlink" x="0px" y="0px"
	 width="100px" height="100px" viewBox="0 0 100 100" enable-background="new 0 0 100 100" xml:space="preserve">
<g>
	<g>
		<g>
			<path fill="#909CAF" d="M73.964,15.23l-4.916,1.319l4.15-10.784l3.096-0.831l-0.235-0.9L3.892,23.377l1.946,7.25l2.922-7.595
				l4.918-1.323L9.524,32.496l-2.979,0.799l0.237,0.9l72.162-19.343l-1.984-7.406L73.964,15.23z M15.353,30.934l4.151-10.784
				l4.922-1.323l-4.183,10.792L15.353,30.934z M26.099,28.062l4.149-10.79l4.896-1.309l-4.151,10.782L26.099,28.062z M36.839,25.177
				l4.157-10.784l4.894-1.317l-4.157,10.786L36.839,25.177z M47.573,22.297l4.159-10.78l4.897-1.311l-4.15,10.78L47.573,22.297z
				 M58.304,19.425l4.183-10.79l4.896-1.318l-4.163,10.79L58.304,19.425z"/>
			<path fill="#909CAF" d="M78.254,44.469l-6.804-9.34h5.087l4.92,6.742v-7.676H6.744v0.934h3.087l6.8,9.34h-5.091l-4.796-6.583
				V84.5h74.713V44.469H78.254z M22.671,44.469l-6.804-9.34h5.067l6.828,9.34H22.671z M33.793,44.469l-6.804-9.34h5.067l6.804,9.34
				H33.793z M44.922,44.469l-6.807-9.34h5.058l6.81,9.34H44.922z M56.041,44.469l-6.809-9.34h5.062l6.807,9.34H56.041z
				 M67.167,44.469l-6.832-9.34h5.092l6.804,9.34H67.167z"/>
		</g>
	</g>
	<g>
		<path fill="#932415" d="M63.002,79.406c-1.976,0-3.603-1.463-3.808-3.402l-3.946-37.497l-0.437-0.261
			c-1.282-1.045-2.111-2.551-2.301-4.229c-0.048-0.518-0.19-3.298,1.881-4.966c0.948-0.723,2.155-1.129,3.376-1.129
			c0.765,0,1.508,0.151,2.211,0.454l1.002,0.428l0.362-1.028c0.309-0.874,0.817-1.683,1.473-2.333
			c1.278-1.227,2.974-1.908,4.76-1.908c0.126,0,0.251,0.004,0.377,0.01l0.761,0.042l0.255-0.717
			c0.508-1.422,1.512-2.609,2.833-3.342c0.922-0.512,1.964-0.783,3.012-0.783c2.257,0,4.338,1.223,5.432,3.193l0.554,0.996
			l0.928-0.659c0.626-0.444,1.317-0.755,2.056-0.93c0.402-0.083,0.845-0.127,1.285-0.127c2.354,0,4.537,1.275,5.696,3.331
			c0.519,0.94,0.787,2.014,0.773,3.099l-0.012,1l0.997,0.032c0.891,0.032,1.763,0.287,2.526,0.737
			c0.267,0.161,2.65,1.677,2.562,4.472c-0.07,1.679-0.973,3.213-2.416,4.093l-0.433,0.263l-1.142,10.868l-1.866,17.975l-0.942,8.918
			c-0.205,1.939-1.83,3.402-3.78,3.402H63.002z"/>
		<g>
			<path d="M93.364,38.903L93.364,38.903L93.364,38.903C93.364,38.903,93.358,38.865,93.364,38.903z"/>
			<path d="M54.352,39.162c-0.034-0.026-0.063-0.058-0.094-0.092c0.028,0.024,0.056,0.048,0.088,0.068L54.352,39.162z"/>
			<path d="M93.364,38.903L93.364,38.903L93.364,38.903C93.364,38.903,93.358,38.865,93.364,38.903z"/>
			<path fill="#FFFFFF" d="M94.506,36.782c-1.142-0.602-2.402-0.95-3.693-1.018c-1.589,0-3.062,0.707-4.474,1.386
				c-1.207,0.604-2.412,1.149-3.432,1.149c-1.018,0-2.203-0.558-3.435-1.149c-1.416-0.679-2.884-1.386-4.476-1.386
				c-1.591,0-3.062,0.707-4.478,1.386c-1.205,0.604-2.408,1.149-3.432,1.149c-1.028,0-2.199-0.558-3.431-1.149
				c-1.42-0.679-2.886-1.386-4.476-1.386c-1.342,0.073-2.651,0.444-3.832,1.085c-0.814-0.785-1.326-1.829-1.448-2.952
				c-0.042-0.41-0.157-2.532,1.362-3.769c1.356-0.976,3.153-1.083,4.615-0.275c-0.05,0.646-0.029,1.291,0.054,1.932
				c0.088,0.6,0.604,1.044,1.207,1.04h0.18c0.659-0.092,1.121-0.697,1.031-1.359c0-0.016-0.004-0.032-0.006-0.047
				c-0.05-0.311-0.416-3.12,1.462-4.988c1.883-1.869,5.028-2.026,7.544-0.44c0.563,0.356,1.309,0.189,1.665-0.373
				c0.356-0.563,0.189-1.309-0.375-1.663c-0.675-0.428-1.404-0.765-2.169-1.002c0.705-1.426,2.046-2.434,3.617-2.709
				c2.438-0.271,4.732,1.207,5.5,3.542c0.225,0.625,0.916,0.952,1.544,0.725c0.183-0.063,0.348-0.175,0.481-0.32
				c0.651-0.739,1.514-1.257,2.468-1.496c2.178-0.422,4.381,0.583,5.483,2.506c0.57,1.08,0.743,2.324,0.494,3.52
				c-0.129,0.655,0.297,1.289,0.948,1.416c0.155,0.032,0.314,0.032,0.469,0c0.978-0.191,1.991-0.024,2.855,0.47
				c0.078,0.048,1.956,1.203,1.891,3.259C96.171,35.063,95.525,36.156,94.506,36.782z"/>
		</g>
		<path fill="#B72825" d="M89.404,75.88c-0.129,1.233-1.173,2.165-2.41,2.155h-3.858l0.887-28.318v-0.021l0.291-9.163
			c1.058-0.295,2.081-0.697,3.054-1.208c1.205-0.602,2.41-1.151,3.436-1.151c0.87,0.052,1.721,0.281,2.498,0.677l0,0l0,0l0,0
			l-1.065,10.114L91.086,59.89L89.404,75.88z"/>
		<path fill="#FC756B" d="M62.988,78.014c-1.237,0.008-2.28-0.925-2.408-2.159l-2.832-26.912l-1.054-10.091
			c0.771-0.405,1.619-0.646,2.487-0.708c1.042,0,2.205,0.562,3.437,1.151c0.97,0.51,1.993,0.913,3.052,1.205l0.288,8.187v0.044
			c0,0.043,0,0.077,0,0.119l0.768,24.548v0.038c0,0.041,0,0.077,0,0.117l0.139,4.481L62.988,78.014z"/>
		<path fill="#E04636" d="M81.624,49.659v0.036l-0.886,28.318H69.255l-0.144-4.647v-0.033l-0.743-24.638v-0.036l-0.253-8.039
			c1.215-0.267,2.385-0.701,3.479-1.295c1.205-0.602,2.407-1.151,3.434-1.151c1.025,0,2.207,0.562,3.434,1.151
			c1.094,0.594,2.263,1.028,3.479,1.295L81.624,49.659z"/>
	</g>
	<g>
		<g>
			<g>
				<path fill="#9B72DB" d="M49.647,91.471c-2.614-1.042-4.898-3.06-6.61-5.833c-3.549-5.747-4.471-14.234-2.465-22.701
					c0.507-2.072,1.228-4.153,2.145-6.18c0.07-0.148,0.221-0.269,0.388-0.3c0.094-0.017,0.194-0.006,0.287,0.029
					c0.065,0.027,0.126,0.065,0.174,0.114c2.66,2.652,6.021,4.83,9.717,6.307c1.352,0.538,2.745,0.98,4.146,1.317
					c2.737,0.646,5.495,0.925,8.206,0.838l3.638-0.329c1.359-0.218,2.699-0.534,4.035-0.94l0.344-0.104l0.002-0.01l0.103-0.032
					c0.2-0.062,0.386-0.121,0.575-0.192l0.064-0.016l0.026-0.002l0.04-0.016c0.035-0.002,0.078-0.002,0.128,0.004
					c0.01,0.003,0.021,0.004,0.032,0.007l0.047,0.018c0.052,0.02,0.099,0.047,0.144,0.078c0.141,0.103,0.221,0.27,0.213,0.439
					c-0.037,1.052-0.136,2.148-0.296,3.269l-0.42,2.523l-0.074,0.368c-0.052,0.255-0.1,0.499-0.15,0.737l-0.026,0.082
					c-1.002,4.078-2.647,7.959-4.761,11.226l-0.146,0.229l-1.323,1.855c-0.212,0.279-0.444,0.56-0.677,0.842
					c0,0-0.14,0.166-0.171,0.204c-0.055,0.064-0.105,0.123-0.161,0.183l-0.109,0.128l-0.309,0.343l-0.031,0.048l-0.072,0.068
					c-0.057,0.064-0.113,0.133-0.175,0.197c-0.064,0.054-0.124,0.114-0.179,0.174l-0.054,0.059
					c-0.031,0.038-0.068,0.072-0.101,0.106c-0.039,0.039-0.349,0.351-0.349,0.351c-0.041,0.041-0.081,0.082-0.121,0.118
					l-0.179,0.178c0,0-0.132,0.117-0.162,0.145l-0.151,0.066l-0.05,0.12l-1.835,1.545c-3.771,2.789-7.796,3.793-11.603,2.873
					C50.725,91.856,50.171,91.682,49.647,91.471L49.647,91.471z"/>
				<path d="M51.284,85.85L51.284,85.85L51.284,85.85z"/>
				<g>
					<path fill="#FFFFFF" d="M52.725,73.129c-0.206,0-0.405-0.038-0.591-0.111c-0.55-0.22-0.933-0.721-1.001-1.308
						c-0.088-0.768-0.447-1.402-0.893-1.579l-0.108-0.024c-0.267,0-0.729,0.327-1.059,0.933c-0.307,0.512-0.845,0.818-1.414,0.818
						c-0.203,0-0.401-0.038-0.589-0.112c-0.02-0.008-0.083-0.034-0.102-0.045c-0.852-0.473-1.129-1.448-0.704-2.221
						c0.91-1.618,2.359-2.582,3.879-2.582c0.324,0,0.645,0.045,0.955,0.135c0.104,0.03,0.212,0.069,0.319,0.112
						c1.572,0.629,2.681,2.243,2.891,4.213c0.1,0.864-0.531,1.657-1.405,1.762C52.835,73.126,52.779,73.129,52.725,73.129
						L52.725,73.129z"/>
					<g>
						<path fill="#7255AA" d="M50.144,67.397c0.274,0,0.547,0.038,0.816,0.115c0.086,0.025,0.179,0.059,0.271,0.096
							c1.402,0.561,2.391,2.017,2.581,3.802c0.068,0.596-0.366,1.141-0.968,1.213c-0.04,0.004-0.08,0.006-0.119,0.006
							c-0.144,0-0.279-0.025-0.406-0.076c-0.377-0.15-0.642-0.495-0.688-0.9c-0.11-0.958-0.583-1.739-1.205-1.986
							c-0.031-0.013-0.063-0.022-0.094-0.032c-0.064-0.019-0.13-0.027-0.199-0.027c-0.497,0-1.101,0.466-1.498,1.192
							c-0.215,0.359-0.591,0.559-0.975,0.559c-0.136,0-0.273-0.025-0.404-0.077l-0.044-0.018l-0.083-0.046
							c-0.529-0.294-0.718-0.964-0.425-1.496C47.527,68.256,48.838,67.397,50.144,67.397 M50.145,66.397
							c-1.703,0-3.315,1.06-4.313,2.833c-0.563,1.021-0.197,2.301,0.811,2.86l0.084,0.047c0.037,0.021,0.074,0.038,0.113,0.054
							c0.292,0.116,0.553,0.166,0.819,0.166c0.743,0,1.445-0.399,1.832-1.044c0.236-0.431,0.496-0.632,0.616-0.69
							c0.194,0.124,0.458,0.523,0.529,1.144c0.089,0.771,0.592,1.428,1.312,1.715c0.245,0.098,0.507,0.147,0.776,0.147
							c0.07,0,0.141-0.004,0.213-0.01c1.172-0.141,1.998-1.182,1.867-2.323c-0.229-2.146-1.456-3.918-3.203-4.616
							c-0.119-0.048-0.243-0.092-0.358-0.126C50.883,66.449,50.515,66.397,50.145,66.397L50.145,66.397z"/>
					</g>
				</g>
				<g>
					<path fill="#FFFFFF" d="M64.067,76.262c-0.22,0-0.421-0.036-0.615-0.11c-0.573-0.229-0.957-0.751-1.011-1.365
						c-0.052-0.73-0.351-1.339-0.727-1.488l0.065-0.506l-0.185,0.471l-0.111-0.017c-0.284,0-0.744,0.295-1.071,0.858
						c-0.28,0.493-0.813,0.802-1.392,0.802c-0.202,0-0.4-0.038-0.589-0.112l-0.097-0.04c-0.022-0.01-0.098-0.052-0.118-0.064
						c-0.372-0.224-0.635-0.568-0.741-0.974c-0.112-0.401-0.056-0.833,0.162-1.209c0.875-1.524,2.347-2.472,3.84-2.472
						c0.306,0,0.606,0.041,0.896,0.121c0.199,0.047,0.376,0.103,0.543,0.172c1.524,0.607,2.569,2.222,2.723,4.21
						c0.061,0.889-0.587,1.643-1.475,1.721C64.151,76.26,64.082,76.262,64.067,76.262L64.067,76.262z"/>
					<g>
						<path fill="#7255AA" d="M61.479,70.535c0.257,0,0.513,0.033,0.763,0.103c0.188,0.045,0.342,0.093,0.486,0.152
							c1.352,0.539,2.276,1.99,2.414,3.786c0.042,0.613-0.406,1.131-1.02,1.185c-0.019,0.001-0.037,0.001-0.055,0.001
							c-0.165,0-0.308-0.028-0.438-0.077c-0.39-0.156-0.653-0.518-0.69-0.942c-0.066-0.938-0.474-1.684-1.039-1.909
							c-0.039-0.017-0.08-0.028-0.12-0.041l-0.071-0.017c-0.072-0.02-0.147-0.029-0.225-0.029c-0.522,0-1.117,0.442-1.504,1.107
							c-0.198,0.35-0.572,0.553-0.959,0.553c-0.135,0-0.271-0.024-0.403-0.077l-0.093-0.038l-0.053-0.031
							c-0.257-0.154-0.439-0.393-0.513-0.671c-0.077-0.276-0.037-0.575,0.111-0.832C58.866,71.372,60.191,70.535,61.479,70.535
							 M61.479,69.535L61.479,69.535c-1.672,0-3.31,1.044-4.274,2.724c-0.284,0.491-0.357,1.06-0.207,1.599
							c0.136,0.518,0.479,0.97,0.961,1.26l0.058,0.034c0.042,0.024,0.085,0.046,0.13,0.064l0.093,0.038
							c0.257,0.103,0.517,0.152,0.783,0.152c0.758,0,1.458-0.405,1.829-1.06c0.25-0.43,0.56-0.594,0.638-0.601l0.044,0.014
							l-0.001,0.002c0.088,0.035,0.362,0.363,0.411,1.051c0.071,0.82,0.574,1.503,1.315,1.8c0.265,0.102,0.531,0.149,0.81,0.149
							l0.091-0.002c0.017,0,0.034-0.001,0.051-0.003c1.162-0.102,2.01-1.09,1.931-2.249c-0.168-2.188-1.333-3.965-3.042-4.646
							c-0.182-0.075-0.384-0.139-0.625-0.196C62.175,69.582,61.829,69.535,61.479,69.535L61.479,69.535z"/>
					</g>
				</g>
				<g>
					<path fill="#FFFFFF" d="M55.287,86.941c-0.833,0-1.675-0.09-2.499-0.269l-0.019-0.524l-0.13,0.483
						c-0.547-0.147-1.043-0.31-1.475-0.482c-3.531-1.407-6.124-4.463-6.765-7.974c-0.071-0.431,0.023-0.855,0.264-1.205
						c0.256-0.357,0.623-0.591,1.038-0.662c0.086-0.015,0.177-0.022,0.269-0.022c0.208,0,0.412,0.039,0.604,0.117
						c0.516,0.204,0.884,0.653,0.98,1.202c0.435,2.426,2.289,4.567,4.837,5.586c0.338,0.134,0.691,0.249,1.051,0.341
						c0.602,0.134,1.229,0.203,1.852,0.203c2.417,0,4.646-1.062,5.959-2.838c0.305-0.406,0.788-0.647,1.296-0.647
						c0.208,0,0.411,0.039,0.604,0.117c0.104,0.04,0.205,0.094,0.315,0.166c0.728,0.538,0.886,1.543,0.376,2.257
						C61.925,85.392,58.728,86.941,55.287,86.941L55.287,86.941z"/>
					<g>
						<path fill="#7255AA" d="M45.971,76.786c0.14,0,0.282,0.026,0.417,0.081c0.356,0.141,0.609,0.45,0.675,0.824
							c0.466,2.597,2.437,4.882,5.145,5.964c0.363,0.145,0.738,0.266,1.112,0.361c0.661,0.147,1.324,0.219,1.976,0.219
							c2.55,0,4.924-1.097,6.361-3.041c0.215-0.286,0.549-0.444,0.894-0.444c0.141,0,0.282,0.026,0.419,0.081
							c0.08,0.031,0.152,0.071,0.227,0.12c0.486,0.36,0.59,1.063,0.243,1.548c-1.856,2.516-4.897,3.942-8.151,3.942
							c-0.79,0-1.592-0.084-2.394-0.257l-0.035-0.008l-0.089-0.028c-0.518-0.139-0.992-0.292-1.418-0.463
							c-3.374-1.345-5.85-4.258-6.459-7.6c-0.049-0.298,0.017-0.589,0.184-0.831c0.177-0.248,0.426-0.404,0.711-0.453
							C45.847,76.791,45.908,76.786,45.971,76.786 M45.971,75.786c-0.121,0-0.241,0.01-0.357,0.03
							c-0.542,0.094-1.023,0.397-1.351,0.857c-0.325,0.47-0.448,1.024-0.356,1.575c0.674,3.695,3.384,6.895,7.076,8.365
							c0.447,0.18,0.963,0.349,1.529,0.5l0.044,0.016c0.028,0.009,0.058,0.017,0.087,0.023c0.9,0.194,1.776,0.288,2.646,0.288
							c3.599,0,6.946-1.625,8.956-4.349c0.676-0.946,0.469-2.262-0.452-2.945c-0.016-0.011-0.03-0.021-0.046-0.031
							c-0.139-0.092-0.274-0.162-0.413-0.217c-0.245-0.098-0.511-0.149-0.782-0.149c-0.664,0-1.297,0.315-1.693,0.845
							c-1.225,1.655-3.303,2.641-5.562,2.641c-0.586,0-1.178-0.065-1.759-0.195c-0.308-0.079-0.641-0.188-0.959-0.313
							c-2.389-0.955-4.125-2.952-4.53-5.212c-0.125-0.717-0.609-1.308-1.292-1.578C46.51,75.838,46.244,75.786,45.971,75.786
							L45.971,75.786z"/>
					</g>
				</g>
			</g>
		</g>
		<g>
			<path fill="#B9DD72" d="M29.309,96.213c-3.708,0-7.492-1.354-10.943-3.913C11.213,86.996,5.939,77.056,4.259,65.71
				c-0.392-2.785-0.526-5.686-0.393-8.615c0.012-0.218,0.14-0.437,0.329-0.556c0.106-0.067,0.235-0.104,0.366-0.104
				c0.093,0,0.187,0.018,0.269,0.054c4.552,1.945,9.73,2.973,14.979,2.973c1.916-0.001,3.84-0.139,5.719-0.41
				c3.667-0.549,7.182-1.553,10.456-2.983l4.293-2.18c1.558-0.932,3.046-1.972,4.481-3.123l0.369-0.295v-0.011l0.11-0.091
				c0.213-0.172,0.412-0.335,0.61-0.517l0.071-0.05l0.031-0.015l0.042-0.037c0.041-0.021,0.094-0.042,0.159-0.06
				c0.014-0.001,0.028-0.004,0.043-0.006l0.066-0.003c0.072,0,0.144,0.009,0.214,0.027c0.221,0.054,0.4,0.221,0.474,0.433
				c0.467,1.304,0.883,2.696,1.234,4.146l0.719,3.294l0.089,0.488c0.062,0.335,0.122,0.659,0.176,0.977l0.008,0.111
				c0.767,5.483,0.647,11.039-0.344,16.071l-0.068,0.351l-0.714,2.919c-0.123,0.445-0.271,0.903-0.418,1.361
				c0,0-0.089,0.271-0.109,0.335c-0.036,0.104-0.069,0.202-0.107,0.302l-0.071,0.21l-0.211,0.57l-0.016,0.073l-0.053,0.119
				c-0.037,0.107-0.075,0.218-0.118,0.328c-0.051,0.097-0.095,0.199-0.133,0.299l-0.037,0.099c-0.021,0.063-0.048,0.121-0.072,0.181
				c-0.029,0.066-0.254,0.598-0.254,0.598c-0.031,0.07-0.058,0.14-0.092,0.204l-0.13,0.306c0,0-0.103,0.206-0.128,0.256
				l-0.153,0.155l-0.003,0.171l-1.49,2.787c-3.255,5.259-7.693,8.453-12.803,9.186C30.817,96.156,30.053,96.213,29.309,96.213
				L29.309,96.213z"/>
			<path d="M28.569,88.529L28.569,88.529L28.569,88.529z"/>
			<g>
				<path fill="#FFFFFF" d="M16.455,73.159l-0.187-0.02c-1.064-0.135-1.819-1.114-1.686-2.183c0.386-2.891,2.227-4.986,4.582-5.218
					c0.134-0.012,0.28-0.017,0.427-0.017c2.175,0,4.267,1.403,5.459,3.661c0.501,0.936,0.145,2.116-0.795,2.63
					c-0.3,0.154-0.606,0.23-0.917,0.23c-0.719,0-1.379-0.394-1.722-1.028c-0.51-0.945-1.317-1.581-2.009-1.581
					c-0.488,0.045-1.011,0.753-1.142,1.822c-0.161,0.994-0.979,1.702-1.95,1.702H16.455z"/>
				<g>
					<path fill="#97B256" d="M19.591,66.223c1.989,0,3.912,1.301,5.017,3.395c0.372,0.694,0.108,1.575-0.592,1.957
						c-0.222,0.114-0.449,0.17-0.678,0.17c-0.535,0-1.026-0.293-1.282-0.766c-0.604-1.12-1.565-1.844-2.449-1.844
						c-0.043,0-0.086,0.003-0.129,0.006c-0.716,0.073-1.358,1.022-1.509,2.256c-0.12,0.737-0.742,1.263-1.454,1.263h-0.061
						l-0.125-0.016c-0.792-0.101-1.351-0.829-1.251-1.624c0.354-2.654,2.015-4.574,4.134-4.782
						C19.33,66.227,19.46,66.223,19.591,66.223 M19.591,65.223c-0.163,0-0.324,0.006-0.47,0.019
						c-2.597,0.255-4.618,2.523-5.034,5.646c-0.169,1.349,0.781,2.578,2.117,2.748l0.126,0.016c0.042,0.005,0.083,0.008,0.125,0.008
						h0.061c1.217,0,2.243-0.884,2.441-2.103c0.112-0.91,0.496-1.376,0.638-1.424l0.013,0.002c0.426,0,1.102,0.453,1.568,1.318
						c0.431,0.797,1.259,1.291,2.162,1.291c0.392,0,0.774-0.095,1.136-0.281c1.202-0.654,1.648-2.139,1.016-3.318
						C24.213,66.728,21.952,65.223,19.591,65.223L19.591,65.223z"/>
				</g>
			</g>
			<g>
				<path fill="#FFFFFF" d="M31.787,71.342c-0.028,0-0.137-0.016-0.164-0.021c-0.516-0.084-0.969-0.356-1.274-0.766
					c-0.31-0.408-0.44-0.922-0.362-1.444c0.387-2.727,2.242-4.807,4.51-5.057c0.264-0.038,0.496-0.054,0.726-0.054
					c2.108,0,4.121,1.433,5.252,3.737c0.472,0.979,0.079,2.126-0.893,2.614c-0.306,0.138-0.582,0.199-0.864,0.199
					c-0.745,0-1.417-0.419-1.753-1.093c-0.451-0.931-1.156-1.553-1.757-1.553c-0.04,0-0.078,0.003-0.117,0.007
					c-0.601,0.072-1.106,0.836-1.242,1.753c-0.132,0.953-0.962,1.676-1.931,1.676H31.787z"/>
				<g>
					<path fill="#97B256" d="M35.223,64.501c1.916,0,3.756,1.325,4.803,3.458c0.352,0.729,0.057,1.582-0.669,1.947
						c-0.228,0.102-0.438,0.146-0.64,0.146c-0.554,0-1.054-0.313-1.306-0.816c-0.541-1.115-1.404-1.829-2.204-1.829
						c-0.057,0-0.112,0.004-0.168,0.01l-0.095,0.015c-0.771,0.088-1.42,1.013-1.59,2.162c-0.098,0.709-0.716,1.249-1.436,1.249
						h-0.131l-0.081-0.014c-0.39-0.063-0.729-0.267-0.956-0.571c-0.229-0.301-0.327-0.685-0.269-1.072
						c0.355-2.5,2.029-4.408,4.07-4.633C34.805,64.516,35.015,64.501,35.223,64.501 M35.223,63.501c-0.264,0-0.522,0.02-0.813,0.061
						c-2.463,0.271-4.499,2.527-4.919,5.482c-0.097,0.65,0.068,1.299,0.464,1.818c0.375,0.506,0.943,0.848,1.591,0.953l0.074,0.013
						c0.056,0.009,0.111,0.014,0.167,0.014h0.131c1.217,0,2.26-0.908,2.427-2.112c0.128-0.872,0.562-1.288,0.712-1.306l0.134-0.02
						c-0.014,0.002-0.015,0.003-0.011,0.003s0.015-0.001,0.026-0.001c0.335,0,0.906,0.443,1.304,1.266
						c0.428,0.855,1.271,1.38,2.206,1.38c0.349,0,0.701-0.078,1.046-0.232c1.261-0.633,1.753-2.071,1.163-3.295
						C39.707,65.04,37.523,63.501,35.223,63.501L35.223,63.501z"/>
				</g>
			</g>
			<g>
				<path fill="#FFFFFF" d="M28.569,88.797c-4.958,0-9.574-2.447-12.044-6.386c-0.275-0.453-0.36-0.978-0.244-1.483
					c0.127-0.52,0.438-0.948,0.875-1.215c0.298-0.188,0.656-0.29,1.027-0.29c0.682,0,1.3,0.343,1.655,0.917
					c1.747,2.807,5.114,4.551,8.786,4.551c0.496,0,0.993-0.032,1.476-0.096c4.134-0.669,7.441-3.479,8.41-7.158
					c0.229-0.86,1.015-1.46,1.912-1.46c0.15,0,0.295,0.017,0.445,0.051c1.051,0.274,1.685,1.342,1.428,2.383
					c-1.346,5.148-5.864,9.084-11.512,10.036l-0.215,0.022C29.868,88.753,29.187,88.797,28.569,88.797L28.569,88.797z"/>
				<g>
					<path fill="#97B256" d="M40.422,76.677c0.113,0,0.223,0.013,0.334,0.038c0.772,0.202,1.242,1.012,1.054,1.776
						c-1.296,4.956-5.656,8.743-11.11,9.662l-0.045,0.008l-0.123,0.009c-0.703,0.084-1.358,0.127-1.964,0.127
						c-4.788,0-9.241-2.357-11.621-6.151c-0.206-0.34-0.267-0.728-0.18-1.105c0.096-0.39,0.325-0.703,0.648-0.9
						c0.221-0.14,0.491-0.217,0.767-0.217c0.507,0,0.967,0.254,1.23,0.68c1.837,2.952,5.368,4.788,9.211,4.788
						c0.516,0,1.034-0.033,1.541-0.1c4.332-0.701,7.809-3.657,8.829-7.527C39.164,77.123,39.751,76.677,40.422,76.677
						 M40.422,75.677c-1.124,0-2.108,0.753-2.395,1.83c-0.919,3.49-4.068,6.157-8.022,6.797c-0.432,0.057-0.906,0.087-1.381,0.087
						c-3.501,0-6.705-1.654-8.362-4.316c-0.445-0.72-1.223-1.151-2.079-1.151c-0.466,0-0.917,0.128-1.301,0.371
						c-0.538,0.328-0.928,0.866-1.086,1.508c-0.149,0.647-0.042,1.304,0.296,1.862c2.569,4.096,7.347,6.633,12.476,6.633
						c0.638,0,1.338-0.045,2.083-0.134l0.076-0.005c0.033-0.002,0.066-0.006,0.1-0.012c5.881-0.991,10.557-5.071,11.951-10.402
						c0.325-1.319-0.47-2.657-1.768-2.997C40.792,75.697,40.609,75.677,40.422,75.677L40.422,75.677z"/>
				</g>
			</g>
		</g>
	</g>
</g>
</svg>
