<?xml version="1.0" encoding="utf-8"?>
<!-- Generator: Adobe Illustrator 14.0.0, SVG Export Plug-In . SVG Version: 6.00 Build 43363)  -->
<!DOCTYPE svg PUBLIC "-//W3C//DTD SVG 1.1//EN" "http://www.w3.org/Graphics/SVG/1.1/DTD/svg11.dtd">
<svg version="1.1" id="Layer_1" xmlns="http://www.w3.org/2000/svg" xmlns:xlink="http://www.w3.org/1999/xlink" x="0px" y="0px"
	 width="100px" height="100px" viewBox="0 0 100 100" enable-background="new 0 0 100 100" xml:space="preserve">
<g>
	<g>
		<defs>
			<path id="SVGID_1_" d="M-156.131,354.422c-8.211,0-17.132-3.616-22.729-9.213c-11.147-11.149-13.125-27.312-4.409-36.029
				c3.546-3.546,8.387-5.421,13.998-5.421c7.754,0,15.784,3.584,22.031,9.83c5.234,5.235,8.445,12.252,9.043,19.759
				c0.535,6.753-1.195,12.835-4.633,16.271C-146.798,353.589-152.252,354.422-156.131,354.422L-156.131,354.422z"/>
		</defs>
		<clipPath id="SVGID_2_">
			<use xlink:href="#SVGID_1_"  overflow="visible"/>
		</clipPath>
		<g clip-path="url(#SVGID_2_)">
			<g>
				<line fill="none" stroke="#78889B" x1="-125.181" y1="367.27" x2="-187.773" y2="304.677"/>
				<line fill="none" stroke="#78889B" x1="-131.44" y1="373.529" x2="-194.032" y2="310.937"/>
				<line fill="none" stroke="#78889B" x1="-118.921" y1="361.011" x2="-181.514" y2="298.418"/>
			</g>
			<g>
				<line fill="none" stroke="#78889B" x1="-143.958" y1="386.048" x2="-206.551" y2="323.455"/>
				<line fill="none" stroke="#78889B" x1="-150.217" y1="392.308" x2="-212.811" y2="329.714"/>
				<line fill="none" stroke="#78889B" x1="-137.7" y1="379.788" x2="-200.292" y2="317.196"/>
			</g>
			<g>
				<line fill="none" stroke="#78889B" x1="-106.403" y1="348.493" x2="-168.995" y2="285.899"/>
				<line fill="none" stroke="#78889B" x1="-112.663" y1="354.751" x2="-175.255" y2="292.159"/>
				<line fill="none" stroke="#78889B" x1="-100.144" y1="342.233" x2="-162.736" y2="279.64"/>
			</g>
			<g>
				<line fill="none" stroke="#78889B" x1="-200.292" y1="354.751" x2="-137.7" y2="292.159"/>
				<line fill="none" stroke="#78889B" x1="-206.551" y1="348.493" x2="-143.958" y2="285.899"/>
				<line fill="none" stroke="#78889B" x1="-194.032" y1="361.011" x2="-131.44" y2="298.418"/>
			</g>
			<line fill="none" stroke="#78889B" x1="-212.811" y1="342.233" x2="-150.217" y2="279.64"/>
			<g>
				<line fill="none" stroke="#78889B" x1="-187.773" y1="367.27" x2="-125.181" y2="304.677"/>
				<line fill="none" stroke="#78889B" x1="-194.032" y1="361.011" x2="-131.44" y2="298.418"/>
				<line fill="none" stroke="#78889B" x1="-181.514" y1="373.529" x2="-118.921" y2="310.937"/>
			</g>
			<g>
				<line fill="none" stroke="#78889B" x1="-168.995" y1="386.048" x2="-106.403" y2="323.455"/>
				<line fill="none" stroke="#78889B" x1="-175.255" y1="379.788" x2="-112.663" y2="317.196"/>
				<line fill="none" stroke="#78889B" x1="-162.736" y1="392.308" x2="-100.144" y2="329.714"/>
			</g>
		</g>
	</g>
	<g>
		<path fill="#9AAAC1" stroke="#78889B" d="M-187.444,305.007c-5.494,5.491-8.041,13.22-7.174,21.759
			c0.844,8.318,4.851,16.442,11.284,22.875c6.258,6.259,14.611,10.066,23.522,10.723c7.211,0.533,13.799-1.087,18.588-4.486
			l13.912,13.911l4.648-4.649l-13.912-13.912c3.4-4.788,5.021-11.374,4.488-18.587c-0.656-8.911-4.465-17.266-10.723-23.523
			c-6.433-6.433-14.557-10.439-22.876-11.283C-174.225,296.965-181.953,299.513-187.444,305.007z M-146.925,313.229
			c11.223,11.223,11.426,29.095,4.111,36.408c-8.945,8.945-27.231,5.066-36.409-4.11c-11.169-11.171-13.013-27.503-4.109-36.407
			C-174.428,300.216-158.096,302.059-146.925,313.229z"/>
		<path fill="#DD4A10" d="M-121.329,364.554c-0.619-0.617-1.629-0.617-2.246,0l-4.322,4.323c-0.617,0.617-0.617,1.626,0,2.245
			l18.699,18.697c0.615,0.616,1.627,0.616,2.242,0l4.324-4.324c0.617-0.616,0.617-1.626,0-2.243L-121.329,364.554z"/>
	</g>
	<g>
		<circle fill="#D0D6D8" cx="-172.767" cy="366.604" r="22.314"/>
		<path fill="#C0CBCE" d="M-172.765,388.978c-3.019,0-5.949-0.591-8.71-1.757c-2.666-1.129-5.058-2.741-7.111-4.794
			c-2.053-2.053-3.666-4.445-4.795-7.113c-1.165-2.747-1.758-5.675-1.763-8.705c0-3.018,0.592-5.948,1.758-8.709
			c1.13-2.668,2.743-5.061,4.795-7.112c2.059-2.054,4.453-3.669,7.116-4.8c2.761-1.166,5.691-1.758,8.71-1.758
			c3.018,0,5.949,0.592,8.711,1.758c2.664,1.129,5.059,2.742,7.11,4.795c2.052,2.052,3.666,4.445,4.794,7.111
			c1.166,2.759,1.758,5.689,1.758,8.711c0,3.02-0.592,5.95-1.758,8.709c-1.129,2.667-2.742,5.061-4.794,7.113
			c-2.055,2.053-4.447,3.665-7.111,4.794C-166.814,388.387-169.746,388.978-172.765,388.978L-172.765,388.978z M-181.98,386.848
			c2.897,1.318,5.995,1.988,9.207,1.988c1.064,0,2.12-0.073,3.139-0.221l0.061-0.009l0.057-0.024
			c0.26-0.112,0.584-0.264,0.967-0.456l-0.24-0.864c-0.548,0.043-1.102,0.064-1.644,0.064l0,0c-1.027,0-2.044-0.076-3.023-0.228
			c-1.407-0.22-2.788-0.597-4.102-1.12l-0.103-0.039l-0.107,0.01c-0.787,0.069-1.55,0.105-2.268,0.105
			c-0.605,0-1.182-0.025-1.71-0.077L-181.98,386.848z M-179.716,380.289l0.084,0.269c0.357,1.154,1.168,3.336,2.562,4.984
			l0.077,0.092l0.113,0.042c1.109,0.41,2.278,0.714,3.474,0.902c0.954,0.148,1.949,0.226,2.956,0.226
			c0.612,0,1.237-0.028,1.859-0.085c1.493-0.137,2.72-0.414,3.485-0.623l0.073-0.021l0.063-0.043
			c2.126-1.449,3.831-3.037,5.066-4.715l0.14-0.192l-2.648-7.932l-9.105-0.843L-179.716,380.289z M-152.895,362.635l-5.156,1.248
			l-3.907,9.027l2.663,7.975l0.381,0.005c0.552,0,1.58-0.081,2.332-0.14c0.259-0.021,0.522-0.042,0.666-0.05l0.227,0.131
			l0.246-0.303c1.059-1.313,1.971-2.761,2.711-4.301c0.846-1.755,1.455-3.609,1.813-5.515l0.01-0.05l-0.002-0.052
			c-0.08-2.178-0.377-6.084-1.479-7.768l-0.023-0.036l-0.211-0.219L-152.895,362.635z M-190.601,363.659l-0.019,0.156
			c-0.152,1.272-0.171,2.564-0.055,3.843c0.148,1.578,0.498,3.162,1.042,4.708c0.887,2.545,2.018,4.17,2.143,4.348l0.04,0.055
			l0.055,0.043c0.135,0.104,3.352,2.564,7.054,3.099l0.222,0.032l8.333-8.069l-1.894-9.862l-11.173-4.094L-190.601,363.659z
			 M-189.741,379.835c0.478-1.47,0.877-2.652,1.186-3.513l0.071-0.199l-0.104-0.183c-0.587-1.024-1.114-2.182-1.524-3.349
			c-0.562-1.589-0.925-3.221-1.08-4.851c-0.117-1.246-0.11-2.49,0.02-3.698l0.021-0.195l-0.128-0.149
			c-1.122-1.314-1.762-2.243-2.073-3.012l-0.506-1.251l-0.357,1.302c-0.513,1.872-0.783,3.902-0.783,5.871
			c0,2.927,0.6,5.903,1.733,8.61c0.598,1.425,1.244,2.624,1.975,3.668c0.104,0.146,0.214,0.287,0.325,0.427l0.162,0.208
			c0.016,0.021,0.036,0.046,0.063,0.076c0.031,0.036,0.114,0.133,0.135,0.173c-0.013-0.024-0.036-0.108-0.003-0.215
			L-189.741,379.835z M-160.947,347.885c-1.147,0.097-3.025,0.26-4.313,0.384l-0.452,0.044l0.802,8.693l6.647,6.388l5.184-1.252
			c0.469-0.105,0.455-0.195,0.088-2.499l-0.027-0.165c-0.385-2.345-0.832-4.586-2.068-6.341c-1.219-1.725-2.908-3.34-5.02-4.803
			c-0.114-0.08-0.232-0.16-0.352-0.24l-0.327-0.223L-160.947,347.885z M-175.886,345.519c-1.764,0.6-3.432,1.479-4.955,2.613
			c-1.208,0.903-2.33,1.971-3.335,3.172l-0.096,0.114l-0.382,6.016l11.202,4.103l8.008-4.577l-0.789-8.584l-0.228-0.113
			c-0.046-0.023-0.089-0.046-0.128-0.069c-0.91-0.595-3.65-2.068-9.099-2.695l-0.102-0.012L-175.886,345.519z M-178.999,345.259
			c-2.841,0.83-5.568,2.273-7.889,4.177c-1.241,1.021-2.376,2.182-3.373,3.447c-0.047,0.063-0.34,0.444-0.34,0.444
			c1.92-1.727,4.408-1.769,5.59-2.007l0.161-0.032l0.104-0.127c1.064-1.31,2.262-2.465,3.559-3.435
			c0.823-0.615,1.69-1.161,2.575-1.62l-0.21-0.861c0.003,0,0.025,0.001,0.053,0.007l-0.115-0.026L-178.999,345.259z"/>
		<path fill="#40423C" d="M-168.444,387.087c1.465-0.143,2.674-0.416,3.438-0.624l0.138-0.038l0.114-0.077
			c2.16-1.474,3.896-3.09,5.159-4.805l0.202-0.278l0.476,0.005c0.585,0,1.656-0.085,2.365-0.141c0,0,0.25-0.021,0.329-0.026
			c-0.316,0.361-0.646,0.714-0.988,1.055c-2.02,2.018-4.372,3.604-6.991,4.714c-1.284,0.542-2.605,0.958-3.956,1.245
			L-168.444,387.087z M-182.267,386.446c-2.245-1.075-4.276-2.516-6.051-4.289c-0.648-0.648-1.253-1.332-1.811-2.048l0.631,0.203
			l0.118-0.36c0.479-1.473,0.876-2.651,1.182-3.501l0.029-0.083c0.194,0.315,0.329,0.51,0.369,0.565l0.031,0.044l0.084,0.09
			l0.058,0.046c0.139,0.107,3.451,2.628,7.23,3.174l0.294,0.042l0.105,0.341c0.353,1.135,1.132,3.24,2.467,4.912l-0.077-0.03
			l-0.199,0.019c-0.775,0.069-1.527,0.104-2.231,0.104c-0.602,0-1.164-0.024-1.673-0.075l-0.32-0.03L-182.267,386.446z
			 M-171.378,371.981l-1.937-10.086l8.115-4.639l6.782,6.516l-3.916,9.048L-171.378,371.981z M-150.782,367.288
			c-0.223-1.852-0.615-3.618-1.291-4.652l-0.068-0.091l-0.311-0.323c0.205-0.323,0.098-0.999-0.162-2.631l-0.029-0.175
			c-0.164-0.999-0.34-1.981-0.582-2.922c0.262,0.505,0.502,1.021,0.727,1.548c1.146,2.714,1.729,5.595,1.729,8.563
			C-150.77,366.833-150.774,367.062-150.782,367.288L-150.782,367.288z M-190.991,363.451c-1.096-1.283-1.716-2.18-2.011-2.906
			l-0.511-1.265c0.146-0.415,0.306-0.825,0.478-1.233c0.685-1.617,1.551-3.133,2.588-4.53l0.102,0.094
			c1.49-1.341,3.387-1.613,4.643-1.794c0.291-0.042,0.551-0.079,0.768-0.123l0.27-0.056l-0.377,5.931l-5.92,5.917L-190.991,363.451z
			 M-166.394,347.865c-0.93-0.607-3.72-2.109-9.249-2.745l-0.188-0.021l-0.178,0.06c-0.759,0.259-1.499,0.566-2.219,0.924
			l-0.182-0.742c1.83-0.485,3.719-0.729,5.644-0.729c2.967,0,5.848,0.581,8.563,1.728c0.853,0.361,1.676,0.772,2.469,1.232
			c-1.112,0.095-2.528,0.22-3.563,0.32l-0.83,0.079l0.003,0.035C-166.123,348.005-166.362,347.884-166.394,347.865z"/>
	</g>
	<g>
		<circle fill="#C0E872" cx="-117.327" cy="314.078" r="15.597"/>
		<g>
			<path fill="#E4F7DA" d="M-111.87,319.534c2.699-2.702,6.359-3.986,10.023-3.643c0.084-0.73,0.117-1.465,0.098-2.198
				c-4.271-0.372-8.529,1.137-11.678,4.285c-3.148,3.147-4.656,7.406-4.287,11.678c0.734,0.017,1.471-0.014,2.199-0.099
				C-115.858,325.896-114.573,322.235-111.87,319.534z"/>
			<path fill="#E4F7DA" d="M-119.144,298.598c0.344,3.661-0.941,7.321-3.643,10.022c-2.699,2.701-6.359,3.985-10.021,3.643
				c-0.084,0.73-0.117,1.464-0.098,2.199c4.27,0.37,8.527-1.139,11.676-4.287c3.146-3.148,4.656-7.406,4.285-11.676
				C-117.679,298.481-118.411,298.513-119.144,298.598z"/>
		</g>
	</g>
</g>
<g>
	<g>
		<polygon fill="#FD5E95" points="75.17,45.459 67.963,45.459 67.963,40.055 75.17,40.055 75.17,44.558 		"/>
		<path fill="#FD5E95" d="M83.943,55.099c5.586,2.441,9.24,6.493,9.24,11.077c0-11.94-9.678-21.618-21.616-21.618
			C76.825,44.558,81.427,48.785,83.943,55.099z"/>
		<path fill="#B169BF" d="M83.943,77.252c-2.517,6.312-7.118,10.54-12.376,10.54c11.938,0,21.616-9.68,21.616-21.616
			C93.184,70.76,89.529,74.81,83.943,77.252z"/>
		<g>
			<path fill="#FD5E95" d="M59.189,77.252c-5.585-2.442-9.24-6.492-9.24-11.076c0,11.937,9.678,21.616,21.618,21.616
				C66.308,87.792,61.706,83.563,59.189,77.252z"/>
			<path fill="#FD5E95" d="M59.189,55.099c2.517-6.314,7.118-10.541,12.378-10.541c-11.938,0-21.618,9.678-21.618,21.618
				C49.949,61.592,53.604,57.54,59.189,55.099z"/>
		</g>
		<g>
			<path fill="#FD8EB4" d="M83.943,55.099c0.924,2.315,1.565,4.914,1.859,7.688c4.522,0.825,7.381,2.037,7.381,3.389
				C93.184,61.592,89.529,57.54,83.943,55.099z"/>
			<path fill="#FD8EB4" d="M57.332,62.787c0.292-2.774,0.934-5.373,1.857-7.688c-5.585,2.441-9.24,6.493-9.24,11.077
				C49.949,64.824,52.807,63.612,57.332,62.787z"/>
		</g>
		<path fill="#FD5E95" d="M85.803,69.564c-0.292,2.772-0.936,5.371-1.859,7.688c5.586-2.442,9.24-6.492,9.24-11.076
			C93.184,67.525,90.325,68.738,85.803,69.564z"/>
		<path fill="#D14D7B" d="M59.189,77.252c-0.924-2.316-1.565-4.915-1.857-7.688c-4.525-0.826-7.383-2.039-7.383-3.389
			C49.949,70.76,53.604,74.81,59.189,77.252z"/>
		<path fill="#B169BF" d="M85.803,62.787c0.114,1.104,0.176,2.233,0.176,3.389c0,1.153-0.062,2.283-0.176,3.389
			c4.522-0.826,7.381-2.039,7.381-3.389C93.184,64.824,90.325,63.612,85.803,62.787z"/>
		<path fill="#FD5E95" d="M57.332,69.564c-0.114-1.105-0.176-2.235-0.176-3.389c0-1.155,0.062-2.285,0.176-3.389
			c-4.525,0.825-7.383,2.037-7.383,3.389C49.949,67.525,52.807,68.738,57.332,69.564z"/>
		<g>
			<path fill="#DBA2D6" d="M83.943,77.252c-2.585,1.132-5.587,1.916-8.83,2.252c-0.823,5.045-2.106,8.288-3.546,8.288
				C76.825,87.792,81.427,83.563,83.943,77.252z"/>
			<path fill="#DBA2D6" d="M75.113,52.846c3.243,0.336,6.245,1.123,8.83,2.253c-2.517-6.314-7.118-10.541-12.376-10.541
				C73.007,44.558,74.29,47.8,75.113,52.846z"/>
		</g>
		<path fill="#FD8EB4" d="M59.189,55.099c2.587-1.13,5.589-1.917,8.832-2.253c0.823-5.046,2.106-8.288,3.546-8.288
			C66.308,44.558,61.706,48.785,59.189,55.099z"/>
		<path fill="#844A8F" d="M68.021,79.504c-3.243-0.336-6.245-1.12-8.832-2.252c2.517,6.312,7.118,10.54,12.378,10.54
			C70.128,87.792,68.845,84.549,68.021,79.504z"/>
		<g>
			<path fill="#FD5E95" d="M85.803,62.787c-0.292-2.774-0.936-5.373-1.859-7.688c-2.585-1.132-5.587-1.917-8.83-2.253
				c0.42,2.57,0.72,5.605,0.862,8.92C79.689,61.926,83.054,62.285,85.803,62.787z"/>
			<path fill="#FD5E95" d="M68.021,52.846c-3.243,0.336-6.245,1.123-8.832,2.253c-0.924,2.315-1.565,4.914-1.857,7.688
				c2.749-0.502,6.113-0.861,9.825-1.021C67.3,58.451,67.602,55.416,68.021,52.846z"/>
			<path fill="#FD5E95" d="M57.332,69.564c0.292,2.772,0.934,5.371,1.857,7.688c2.587,1.132,5.589,1.916,8.832,2.252
				c-0.42-2.569-0.722-5.605-0.864-8.92C63.445,70.424,60.081,70.065,57.332,69.564z"/>
		</g>
		<path fill="#FD8EB4" d="M75.976,70.584c-0.143,3.314-0.442,6.351-0.862,8.92c3.243-0.336,6.245-1.12,8.83-2.252
			c0.924-2.316,1.565-4.915,1.859-7.688C83.054,70.065,79.689,70.424,75.976,70.584z"/>
		<path fill="#844A8F" d="M67.063,66.176c0-1.512,0.032-2.987,0.094-4.41c-3.712,0.16-7.076,0.52-9.825,1.021
			c-0.116,1.104-0.176,2.233-0.176,3.389c0,1.153,0.06,2.283,0.176,3.389c2.749,0.501,6.113,0.859,9.825,1.02
			C67.096,69.162,67.063,67.687,67.063,66.176z"/>
		<path fill="#DBA2D6" d="M76.069,66.176c0,1.511-0.032,2.986-0.094,4.408c3.714-0.16,7.078-0.519,9.827-1.02
			c0.114-1.105,0.176-2.235,0.176-3.389c0-1.155-0.062-2.285-0.176-3.389c-2.749-0.502-6.113-0.861-9.827-1.021
			C76.037,63.188,76.069,64.664,76.069,66.176z"/>
		<g>
			<path fill="#FD5E95" d="M68.021,52.846c1.153-0.118,2.337-0.182,3.546-0.182c1.207,0,2.393,0.065,3.546,0.182
				c-0.823-5.046-2.106-8.288-3.546-8.288S68.845,47.8,68.021,52.846z"/>
			<path fill="#FD5E95" d="M75.113,79.504c-1.153,0.119-2.339,0.182-3.546,0.182c-1.209,0-2.393-0.063-3.546-0.182
				c0.823,5.045,2.106,8.288,3.546,8.288S74.29,84.549,75.113,79.504z"/>
		</g>
		<path fill="#B169BF" d="M71.567,70.678c-1.512,0-2.986-0.032-4.41-0.094c0.143,3.314,0.444,6.351,0.864,8.92
			c1.153,0.119,2.337,0.182,3.546,0.182c1.207,0,2.393-0.063,3.546-0.182c0.42-2.569,0.72-5.605,0.864-8.92
			C74.554,70.646,73.077,70.678,71.567,70.678z"/>
		<path fill="#FD8EB4" d="M71.567,61.672c1.51,0,2.986,0.032,4.408,0.094c-0.143-3.314-0.442-6.35-0.862-8.92
			c-1.153-0.118-2.339-0.182-3.546-0.182c-1.209,0-2.393,0.063-3.546,0.182c-0.42,2.57-0.722,5.605-0.864,8.92
			C68.581,61.704,70.056,61.672,71.567,61.672z"/>
		<path fill="#FD5E95" d="M75.976,61.766c-1.422-0.062-2.898-0.094-4.408-0.094c-1.512,0-2.986,0.032-4.41,0.094
			c-0.062,1.423-0.094,2.898-0.094,4.41c0,1.511,0.032,2.984,0.094,4.408c1.424,0.062,2.898,0.094,4.41,0.094
			c1.51,0,2.986-0.032,4.408-0.094c0.062-1.424,0.094-2.897,0.094-4.408C76.069,64.664,76.037,63.188,75.976,61.766z"/>
		<path fill="#D14D7B" d="M52.821,72.906c-1.827-1.982-2.872-4.28-2.872-6.73c0,11.937,9.678,21.616,21.618,21.616
			c-1.237,0-2.437-0.236-3.582-0.676C60.83,85.281,55.103,79.875,52.821,72.906z"/>
		<path fill="#9B3159" d="M71.567,88.231c-12.164,0-22.058-9.894-22.058-22.056c0-10.462,7.44-19.556,17.689-21.622l0.324-0.065
			v-4.434c0-0.242,0.199-0.44,0.439-0.44h3.163V6.088c0-0.243,0.199-0.441,0.441-0.441s0.439,0.198,0.439,0.441v33.526h3.163
			c0.243,0,0.439,0.198,0.439,0.44v4.434l0.324,0.065c10.251,2.066,17.689,11.16,17.691,21.622c0,4.105-1.136,8.11-3.284,11.584
			c-0.08,0.131-0.222,0.21-0.374,0.21l0,0c-0.082,0-0.162-0.023-0.231-0.067c-0.101-0.061-0.17-0.158-0.198-0.272
			c-0.026-0.115-0.008-0.231,0.056-0.333c0.74-1.196,1.365-2.481,1.854-3.813l-0.682-0.41c-1.035,1.149-2.333,2.205-3.854,3.137
			c-0.069,0.042-0.149,0.063-0.229,0.063c-0.154,0-0.296-0.079-0.376-0.209c-0.061-0.101-0.08-0.219-0.052-0.334
			c0.027-0.114,0.098-0.21,0.197-0.271c3.017-1.845,5.048-4.158,5.876-6.69l0.304-0.93l-0.87,0.443
			c-1.111,0.564-2.732,1.07-4.817,1.506l-0.737,0.147l-0.036,0.29c-0.244,1.963-0.668,3.872-1.264,5.67
			c-0.06,0.182-0.228,0.304-0.418,0.304c-0.046,0-0.092-0.01-0.138-0.022c-0.229-0.076-0.355-0.325-0.28-0.556
			c0.524-1.587,0.914-3.263,1.157-4.979l0.078-0.542l-0.543,0.088c-2.392,0.382-5.086,0.65-7.999,0.798l-0.365,0.021l-0.019,0.365
			c-0.102,1.953-0.254,3.82-0.46,5.546c-0.027,0.222-0.212,0.388-0.436,0.388l-0.054-0.002c-0.116-0.015-0.222-0.072-0.292-0.164
			c-0.072-0.094-0.106-0.208-0.092-0.324c0.197-1.663,0.348-3.456,0.447-5.331l0.022-0.438l-0.441,0.013
			c-1.17,0.038-2.35,0.06-3.507,0.06c-1.165,0-2.345-0.021-3.509-0.06l-0.441-0.015l0.022,0.438c0.14,2.646,0.381,5.104,0.715,7.301
			l0.048,0.317l0.316,0.026c0.941,0.078,1.899,0.117,2.849,0.117c0.242,0,0.439,0.198,0.439,0.44c0,0.243-0.197,0.439-0.439,0.439
			c-0.828,0-1.667-0.03-2.495-0.088l-0.523-0.036l0.096,0.514c0.056,0.292,0.11,0.576,0.168,0.855
			c0.918,4.41,2.025,5.981,2.755,5.981c0.686,0,1.739-1.431,2.639-5.449c0.044-0.2,0.226-0.344,0.43-0.344
			c0.032,0,0.064,0.004,0.096,0.01c0.116,0.026,0.214,0.096,0.274,0.194c0.063,0.098,0.084,0.216,0.06,0.331
			c-0.443,1.979-0.957,3.503-1.523,4.526l-0.382,0.686l0.78-0.088c2.274-0.256,4.481-0.876,6.561-1.845l0.304-0.139L79.871,81.5
			l-4.699-1.604c-0.178-0.063-0.296-0.229-0.296-0.418c0-0.187,0.118-0.355,0.296-0.414l4.699-1.605l1.322-5.291
			c0.048-0.196,0.224-0.334,0.426-0.334c0.205,0,0.379,0.138,0.428,0.334l1.323,5.291l4.697,1.605
			c0.177,0.059,0.298,0.228,0.298,0.414c0,0.191-0.121,0.357-0.298,0.418L83.37,81.5l-0.684,2.728l0.883-0.604
			c0.626-0.43,1.232-0.897,1.806-1.391c0.102-0.088,0.212-0.106,0.286-0.106c0.128,0,0.25,0.055,0.334,0.154
			c0.159,0.182,0.136,0.46-0.046,0.619c-1.05,0.902-2.195,1.712-3.401,2.405l-0.151,0.086l-0.35,1.401
			c-0.049,0.196-0.225,0.334-0.428,0.334c-0.202,0-0.378-0.138-0.426-0.334l-0.172-0.684l-0.438,0.198
			C77.729,87.584,74.694,88.231,71.567,88.231L71.567,88.231z M60.435,78.97c2.115,4.224,5.165,7.076,8.584,8.03l0.896,0.25
			l-0.428-0.824c-0.576-1.115-1.092-2.756-1.535-4.877c-0.09-0.433-0.176-0.884-0.258-1.346l-0.052-0.296l-0.298-0.034
			c-2.251-0.275-4.41-0.768-6.415-1.465l-0.94-0.328L60.435,78.97z M51.691,73.486c2.035,5.514,6.316,9.976,11.746,12.242
			l0.428-0.674c-1.034-0.934-1.995-2.061-2.855-3.351c-0.801-1.203-1.509-2.54-2.104-3.974l-0.061-0.146l-0.144-0.065
			c-0.943-0.43-1.837-0.904-2.652-1.416c-1.445-0.903-2.682-1.923-3.678-3.026L51.691,73.486z M80.665,77.904
			c-0.036,0.147-0.142,0.262-0.284,0.31l-3.704,1.264l3.704,1.266c0.143,0.05,0.248,0.166,0.284,0.31l0.563,2.247l0.391,1.485
			l0.394-1.485l0.562-2.247c0.036-0.144,0.144-0.26,0.284-0.31l3.706-1.266l-3.706-1.264c-0.141-0.048-0.248-0.162-0.284-0.31
			l-0.562-2.247l-0.394-1.751l-0.391,1.751L80.665,77.904z M57.909,70.646c0.305,2.151,0.828,4.21,1.556,6.117l0.061,0.16
			l0.161,0.069c2.215,0.932,4.662,1.586,7.275,1.943l0.533,0.072l-0.076-0.53c-0.313-2.169-0.535-4.56-0.665-7.104l-0.019-0.365
			l-0.365-0.021c-2.911-0.147-5.602-0.416-7.997-0.798l-0.541-0.088L57.909,70.646z M50.81,68.772
			c0.813,2.482,2.785,4.758,5.705,6.583c0.321,0.2,0.651,0.394,0.987,0.579l0.882,0.486l-0.3-0.96
			c-0.517-1.659-0.894-3.42-1.12-5.233l-0.034-0.288L56.19,69.79c-2.081-0.434-3.701-0.941-4.813-1.506l-0.872-0.441L50.81,68.772z
			 M71.567,62.113c-1.21,0-2.425,0.021-3.612,0.061l-0.376,0.014l-0.014,0.376c-0.04,1.188-0.061,2.402-0.061,3.612
			c0,1.209,0.021,2.425,0.061,3.61l0.014,0.376l0.376,0.014c1.188,0.042,2.402,0.063,3.612,0.063c1.209,0,2.423-0.021,3.608-0.063
			l0.378-0.014l0.014-0.376c0.042-1.208,0.063-2.423,0.063-3.61c0-1.201-0.021-2.415-0.063-3.612l-0.014-0.376l-0.376-0.014
			C73.992,62.134,72.776,62.113,71.567,62.113L71.567,62.113z M76.451,62.667c0.04,1.155,0.06,2.335,0.06,3.509
			c0,1.171-0.02,2.353-0.06,3.508l-0.016,0.44l0.441-0.022c3.022-0.158,5.785-0.447,8.214-0.859l0.307-0.052l0.027-0.313
			c0.076-0.892,0.114-1.803,0.114-2.702c0-0.904-0.038-1.815-0.114-2.703l-0.027-0.313l-0.307-0.052
			c-2.429-0.41-5.191-0.7-8.214-0.858l-0.441-0.023L76.451,62.667z M66.258,62.249c-3.022,0.158-5.787,0.448-8.214,0.858
			l-0.309,0.052l-0.027,0.313c-0.074,0.896-0.112,1.806-0.112,2.703s0.038,1.807,0.112,2.704l0.027,0.311l0.309,0.054
			c2.429,0.41,5.191,0.699,8.214,0.857l0.439,0.022l-0.016-0.44c-0.038-1.155-0.06-2.335-0.06-3.508c0-1.174,0.021-2.354,0.06-3.509
			l0.016-0.441L66.258,62.249z M86.337,63.858c0.054,0.771,0.08,1.55,0.08,2.317c0,0.766-0.026,1.545-0.08,2.316l-0.038,0.534
			l0.525-0.11c4.364-0.917,5.921-2.017,5.921-2.74s-1.557-1.825-5.921-2.743l-0.523-0.109L86.337,63.858z M56.311,63.433
			c-4.365,0.918-5.92,2.02-5.92,2.743s1.555,1.823,5.92,2.74l0.523,0.11l-0.036-0.534c-0.056-0.775-0.082-1.557-0.082-2.316
			c0-0.762,0.026-1.542,0.082-2.317l0.036-0.535L56.311,63.433z M85.051,56.89c0.517,1.661,0.894,3.423,1.118,5.233l0.036,0.29
			l0.737,0.146c2.081,0.434,3.702,0.939,4.813,1.507l0.872,0.442l-0.304-0.93c-0.813-2.483-2.785-4.76-5.706-6.585
			c-0.319-0.2-0.649-0.391-0.987-0.578l-0.882-0.487L85.051,56.89z M57.502,56.416c-0.336,0.188-0.664,0.378-0.987,0.578
			c-2.92,1.825-4.892,4.102-5.705,6.585l-0.304,0.93l0.872-0.442c1.111-0.567,2.731-1.073,4.814-1.507l0.737-0.148l0.034-0.288
			c0.227-1.811,0.604-3.57,1.12-5.233l0.3-0.961L57.502,56.416z M75.714,53.873c0.313,2.167,0.537,4.56,0.667,7.106l0.019,0.364
			l0.365,0.02c2.907,0.146,5.598,0.416,7.995,0.798l0.543,0.088l-0.076-0.545c-0.306-2.151-0.831-4.207-1.559-6.115l-0.061-0.162
			l-0.161-0.066c-2.216-0.936-4.664-1.591-7.275-1.945l-0.531-0.073L75.714,53.873z M66.962,53.415
			c-2.611,0.354-5.059,1.01-7.275,1.945l-0.161,0.066l-0.061,0.16c-0.728,1.91-1.251,3.966-1.556,6.117l-0.077,0.545l0.541-0.088
			c2.396-0.382,5.086-0.651,7.997-0.8l0.365-0.018l0.019-0.364c0.13-2.547,0.352-4.939,0.665-7.106l0.076-0.531L66.962,53.415z
			 M71.567,61.231c1.163,0,2.345,0.021,3.509,0.059l0.441,0.016l-0.022-0.439c-0.14-2.639-0.38-5.096-0.715-7.301l-0.047-0.316
			l-0.319-0.027c-0.939-0.078-1.897-0.116-2.847-0.116s-1.907,0.038-2.849,0.116L68.4,53.249l-0.048,0.316
			c-0.334,2.205-0.575,4.662-0.713,7.301l-0.022,0.439l0.441-0.016C69.223,61.252,70.402,61.231,71.567,61.231L71.567,61.231z
			 M63.438,46.622c-5.43,2.264-9.711,6.726-11.746,12.242l0.68,0.411c0.994-1.104,2.23-2.121,3.678-3.026
			c0.821-0.514,1.715-0.989,2.652-1.417l0.144-0.064l0.061-0.147c0.596-1.434,1.304-2.771,2.104-3.973
			c0.86-1.291,1.821-2.417,2.855-3.351L63.438,46.622z M79.268,47.295c1.034,0.932,1.995,2.06,2.854,3.351
			c0.802,1.199,1.51,2.537,2.105,3.973l0.062,0.147l0.145,0.064c0.939,0.428,1.831,0.903,2.652,1.417
			c1.447,0.905,2.685,1.923,3.677,3.026l0.68-0.411c-2.035-5.514-6.315-9.976-11.747-12.242L79.268,47.295z M69.019,45.35
			c-3.419,0.955-6.469,3.807-8.584,8.028l-0.446,0.892l0.94-0.328c2.005-0.696,4.164-1.189,6.415-1.462l0.298-0.037l0.052-0.294
			c0.082-0.464,0.168-0.914,0.258-1.348c0.443-2.121,0.959-3.761,1.535-4.874l0.428-0.827L69.019,45.35z M73.646,45.927
			c0.577,1.111,1.094,2.751,1.537,4.874c0.09,0.434,0.176,0.884,0.258,1.346l0.052,0.296l0.296,0.037
			c2.253,0.272,4.412,0.766,6.417,1.462l0.938,0.328l-0.446-0.892c-2.113-4.221-5.162-7.073-8.584-8.028l-0.897-0.25L73.646,45.927z
			 M71.567,44.999c-0.729,0-1.837,1.571-2.755,5.982c-0.058,0.278-0.112,0.565-0.168,0.855l-0.096,0.516l0.523-0.038
			c0.832-0.06,1.67-0.088,2.495-0.088c0.823,0,1.663,0.028,2.497,0.088l0.521,0.038l-0.098-0.516
			c-0.053-0.292-0.108-0.579-0.168-0.857C73.402,46.57,72.295,44.999,71.567,44.999L71.567,44.999z M71.567,44.119
			c0.897,0,1.81,0.055,2.709,0.166l0.453,0.055v-3.845h-6.325v3.845l0.454-0.055C69.758,44.174,70.668,44.119,71.567,44.119
			L71.567,44.119z"/>
		<path fill="#AD9245" d="M90.482,50.402c-0.202,0-0.378-0.136-0.428-0.333l-1.323-5.292l-4.696-1.605
			c-0.178-0.06-0.298-0.228-0.298-0.415c0-0.189,0.12-0.356,0.298-0.416l4.696-1.606l1.323-5.291
			c0.05-0.197,0.226-0.334,0.428-0.334s0.378,0.137,0.426,0.334l1.323,5.291l4.696,1.606c0.18,0.06,0.3,0.227,0.3,0.416
			c0,0.187-0.12,0.355-0.3,0.415l-4.696,1.605l-1.323,5.292C90.86,50.267,90.685,50.402,90.482,50.402L90.482,50.402z
			 M90.089,38.935l-0.562,2.247c-0.036,0.145-0.143,0.262-0.284,0.31l-3.706,1.266l3.706,1.266c0.142,0.048,0.248,0.165,0.284,0.31
			l0.562,2.245l0.785,0.002l0.563-2.247c0.036-0.147,0.142-0.262,0.285-0.31l3.703-1.266l-3.703-1.266
			c-0.142-0.048-0.249-0.165-0.285-0.31l-0.563-2.247H90.089z"/>
		<g>
			<g>
				<polygon fill="#FFE88A" points="91.862,44.439 96.786,42.757 91.862,41.075 90.482,35.552 89.102,41.075 84.176,42.757 
					89.102,44.439 90.482,49.963 				"/>
				<polygon fill="#FFE88A" points="83.002,81.141 87.926,79.461 83.002,77.778 81.619,72.255 80.239,77.778 75.315,79.461 
					80.239,81.141 81.619,86.666 				"/>
			</g>
			<g>
				<path fill="#AD9245" d="M42.962,31.6c-0.203,0-0.379-0.135-0.427-0.332l-1.323-5.292l-4.698-1.604
					c-0.174-0.062-0.298-0.232-0.298-0.417c0-0.185,0.124-0.357,0.298-0.417l4.698-1.603l1.323-5.292
					c0.048-0.196,0.224-0.333,0.427-0.333c0.202,0,0.377,0.137,0.427,0.333l1.323,5.292l4.698,1.603
					c0.177,0.06,0.298,0.228,0.298,0.417c0,0.187-0.121,0.355-0.298,0.417l-4.698,1.604l-1.323,5.292
					C43.339,31.464,43.164,31.6,42.962,31.6L42.962,31.6z M42.006,22.38c-0.037,0.146-0.143,0.261-0.284,0.31l-3.705,1.266
					l3.705,1.264c0.141,0.048,0.247,0.165,0.284,0.309l0.563,2.249l0.785-0.002l0.562-2.247c0.036-0.144,0.143-0.261,0.285-0.309
					l3.705-1.264l-3.705-1.266c-0.142-0.049-0.249-0.164-0.285-0.31l-0.562-2.247h-0.785L42.006,22.38z"/>
				<polygon fill="#FFE88A" points="44.342,25.635 49.266,23.955 44.342,22.273 42.962,16.749 41.581,22.273 36.657,23.955 
					41.581,25.635 42.962,31.161 				"/>
			</g>
		</g>
	</g>
	<g>
		<path fill="#E6EBF4" stroke="#AEBCCE" d="M30.185,66.562v27.045h-9.164c-0.57,0-1.03,0.46-1.03,1.032v1.359
			c0,0.567,0.46,1.029,1.03,1.029h23.052c0.57,0,1.03-0.462,1.03-1.029v-1.359c0-0.572-0.46-1.032-1.03-1.032h-9.164V66.562"/>
		<path fill="#E6EBF4" stroke="#AEBCCE" d="M43.169,58.037c0,5.865-4.756,10.619-10.623,10.619c-5.864,0-10.619-4.754-10.619-10.619
			"/>
		<path opacity="0.5" fill="#87C9C4" d="M41.979,58.037c0,5.208-4.222,9.432-9.434,9.432c-5.208,0-9.431-4.224-9.431-9.432"/>
		<path fill="#E6EBF4" stroke="#AEBCCE" d="M62.321,37.142v4.179c0,9.232-7.484,16.716-16.716,16.716H19.489
			c-9.231,0-16.716-7.484-16.716-16.716v-4.179H62.321z"/>
		<g>
			<circle fill="#B2C187" stroke="#889166" cx="15.606" cy="44.978" r="6.318"/>
			
				<line fill="#B2C187" stroke="#889166" stroke-width="2" stroke-linecap="round" stroke-linejoin="round" x1="16.779" y1="41.488" x2="19.027" y2="34.788"/>
		</g>
		<path opacity="0.5" fill="#87C9C4" d="M61.274,40.762c0,8.907-7.223,16.127-16.128,16.127H19.947
			c-8.906,0-16.127-7.221-16.127-16.127H61.274z"/>
	</g>
	<g>
		<g>
			<path fill="#A8739E" d="M35.093,18.814L28.694,6.191l14.057,0.722L35.093,18.814z"/>
			<path fill="#A8739E" d="M57.248,6.913l14.058-0.722l-6.397,12.623L57.248,6.913z"/>
		</g>
		<g>
			<path fill="none" stroke="#6D2B64" stroke-width="2" stroke-linecap="round" stroke-linejoin="round" d="M2.772,2.973
				c0,0,25.381,4.269,47.227,4.269c21.847,0,47.229-4.269,47.229-4.269"/>
			<path fill="#DBC3D8" stroke="#A8739E" d="M49.999,19.52L42.962,7.242h14.076L49.999,19.52z"/>
			<g>
				<path fill="#DBC3D8" stroke="#A8739E" d="M79.943,18.036L71.657,6.564l13.994-1.478L79.943,18.036z"/>
				<path fill="#DBC3D8" stroke="#A8739E" d="M14.347,5.086l13.995,1.478l-8.288,11.472L14.347,5.086z"/>
			</g>
		</g>
	</g>
</g>
<g>
	<g>
		<circle fill="#F2EBB8" cx="-11.143" cy="344.1" r="44.449"/>
		<g>
			<circle fill="#95BF45" cx="-33.85" cy="322.227" r="24.901"/>
			<rect x="-38.333" y="328.383" fill="#7C510D" width="8.965" height="61.197"/>
			<g>
				<circle fill="#95BF45" cx="-22.506" cy="332.481" r="12.573"/>
				<circle fill="#95BF45" cx="-45.691" cy="332.481" r="12.573"/>
			</g>
			<g>
				<path fill="none" stroke="#688921" stroke-linecap="round" d="M-33.084,339.205c0,0-9.663-8.125-1.24-15.465
					c8.009-6.98,17.9,6.213,10.799,7.963"/>
				<path fill="none" stroke="#688921" stroke-linecap="round" d="M-32.703,322.584c0,0,4.161-8.688-6.725-12.748
					c-10.349-3.861-12.154,8.967-5.21,8.808"/>
				<path fill="none" stroke="#688921" stroke-linecap="round" d="M-33.955,313.372c0,0-3.188-6.155,4.255-9.396
					c7.075-3.083,8.761,6.128,3.921,6.212"/>
			</g>
		</g>
	</g>
	<path fill="#95BF45" d="M36.097,388.803c0,1.285-1.043,2.329-2.33,2.329h-90.188c-1.286,0-2.329-1.044-2.329-2.329l0,0
		c0-1.288,1.043-2.329,2.329-2.329h90.188C35.054,386.474,36.097,387.515,36.097,388.803L36.097,388.803z"/>
	<g>
		<g>
			<path fill="none" stroke="#D39C00" d="M18.589,336.438c0,0,3.697-0.354,3.697,2.044c0,2.4-2.088,5.708-3.627,5.708
				C18.66,342.131,18.589,336.438,18.589,336.438z"/>
			<rect x="7.423" y="334.525" fill="#F9E600" width="11.166" height="13.854"/>
			<g>
				<path fill="#D39C00" d="M7.959,348.101h10.387v-2.083H7.959V348.101z M18.882,348.369c0,0.146-0.121,0.268-0.269,0.268H7.692
					c-0.147,0-0.269-0.121-0.269-0.268v-13.844c0-0.972,0.538-1.842,1.404-2.27l0.194-0.096l0.041-0.21
					c0.298-1.435,1.575-2.475,3.034-2.475c1.025,0,1.98,0.503,2.554,1.346l0.146,0.214l0.256-0.023
					c0.102-0.009,0.203-0.014,0.302-0.014c1.945,0,3.527,1.582,3.527,3.527V348.369z M7.959,345.481h10.387v-10.688H7.959V345.481z
					 M12.097,330.012c-1.33,0-2.453,1.043-2.555,2.371c-0.008,0.109-0.082,0.203-0.186,0.236c-0.518,0.162-0.938,0.517-1.179,0.998
					l-0.326,0.64h10.539l-0.162-0.563c-0.37-1.271-1.55-2.158-2.874-2.158c-0.214,0-0.433,0.024-0.65,0.073
					c-0.019,0.005-0.038,0.007-0.058,0.007c-0.104,0-0.197-0.06-0.241-0.151C13.973,330.568,13.087,330.012,12.097,330.012
					L12.097,330.012z"/>
				<path fill="#FFF7AB" d="M13.007,343.834c0.325,0,0.591-0.265,0.591-0.59v-6.213c0-0.326-0.266-0.592-0.591-0.592
					c-0.327,0-0.592,0.266-0.592,0.592v6.213C12.416,343.569,12.68,343.834,13.007,343.834z"/>
				<path fill="#FFF7AB" d="M15.737,343.834c0.326,0,0.59-0.265,0.59-0.59v-6.213c0-0.326-0.264-0.592-0.59-0.592
					c-0.325,0-0.59,0.266-0.59,0.592v6.213C15.147,343.569,15.412,343.834,15.737,343.834z"/>
				<path fill="#FFF7AB" d="M10.276,343.834c0.327,0,0.592-0.265,0.592-0.59v-6.213c0-0.326-0.265-0.592-0.592-0.592
					c-0.326,0-0.59,0.266-0.59,0.592v6.213C9.686,343.569,9.95,343.834,10.276,343.834z"/>
			</g>
			<path fill="#FFFFFF" d="M12.097,330.012c-1.33,0-2.453,1.043-2.555,2.371c-0.008,0.109-0.082,0.203-0.186,0.236
				c-0.518,0.162-0.938,0.517-1.179,0.998l-0.326,0.64h10.539l-0.162-0.563c-0.37-1.271-1.55-2.158-2.874-2.158
				c-0.214,0-0.433,0.024-0.65,0.073c-0.019,0.005-0.038,0.007-0.058,0.007c-0.104,0-0.197-0.06-0.241-0.151
				C13.973,330.568,13.087,330.012,12.097,330.012L12.097,330.012z"/>
			<path fill="#FFFFFF" d="M17.585,337.043c0,0.28-0.228,0.508-0.507,0.508l0,0c-0.282,0-0.511-0.228-0.511-0.508v-3.204
				c0-0.281,0.229-0.509,0.511-0.509l0,0c0.279,0,0.507,0.228,0.507,0.509V337.043z"/>
			<path fill="#FFFFFF" d="M15.979,335.217c0,0.297-0.242,0.535-0.537,0.535l0,0c-0.297,0-0.536-0.238-0.536-0.535v-1.789
				c0-0.298,0.239-0.537,0.536-0.537l0,0c0.295,0,0.537,0.239,0.537,0.537V335.217z"/>
		</g>
		<g>
			<path fill="#7C4F00" d="M-2.387,352.402c0.402,0,0.728,0.327,0.728,0.73l-10.274,35.718c0,0.403-0.326,0.729-0.728,0.729h-5.215
				c-0.403,0-0.73-0.326-0.73-0.729l10.274-35.718c0-0.403,0.327-0.73,0.73-0.73H-2.387z"/>
			<path fill="#7C4F00" d="M12.623,352.402c-0.4,0-0.729,0.327-0.729,0.73l10.275,35.718c0,0.403,0.325,0.729,0.728,0.729h5.216
				c0.402,0,0.729-0.326,0.731-0.729L18.57,353.133c-0.002-0.403-0.329-0.73-0.731-0.73H12.623z"/>
			<path fill="#DDA61D" stroke="#775200" d="M28.844,355.011c0,0.403-0.327,0.729-0.729,0.729h-45.993
				c-0.402,0-0.729-0.325-0.729-0.729v-5.216c0-0.403,0.327-0.729,0.729-0.729h45.993c0.402,0,0.729,0.326,0.729,0.729V355.011z"/>
			<path fill="#DDA61D" stroke="#775200" d="M36.097,371.372c0,0.403-0.325,0.731-0.73,0.731H-24.58
				c-0.403,0-0.729-0.328-0.729-0.731v-5.214c0-0.402,0.327-0.729,0.729-0.729h59.947c0.405,0,0.73,0.327,0.73,0.729V371.372z"/>
		</g>
	</g>
</g>
</svg>
