<?xml version="1.0" encoding="utf-8"?>
<!-- Generator: Adobe Illustrator 14.0.0, SVG Export Plug-In . SVG Version: 6.00 Build 43363)  -->
<!DOCTYPE svg PUBLIC "-//W3C//DTD SVG 1.1//EN" "http://www.w3.org/Graphics/SVG/1.1/DTD/svg11.dtd">
<svg version="1.1" id="Layer_1" xmlns="http://www.w3.org/2000/svg" xmlns:xlink="http://www.w3.org/1999/xlink" x="0px" y="0px"
	 width="100px" height="100px" viewBox="0 0 100 100" enable-background="new 0 0 100 100" xml:space="preserve">
<g>
	<g>
		
			<line fill="none" stroke="#1C2356" stroke-width="2" stroke-linecap="round" stroke-linejoin="round" x1="11.55" y1="11.907" x2="14.45" y2="22.125"/>
		
			<line fill="none" stroke="#1C2356" stroke-width="2" stroke-linecap="round" stroke-linejoin="round" x1="18.109" y1="15.565" x2="7.891" y2="18.466"/>
	</g>
	<g>
		<polygon fill="#99B6D6" points="32.885,12.843 28.93,16.798 60.599,38.158 76.063,22.688 		"/>
		<polygon fill="#99B6D6" points="88.864,68.821 84.907,72.776 63.548,41.109 79.017,25.643 		"/>
		<polygon fill="#99B6D6" points="52.5,52.153 39.242,44.786 27.458,47.734 40.716,58.046 		"/>
		<polygon fill="#99B6D6" points="49.556,49.208 56.921,62.464 53.974,74.251 43.662,60.991 		"/>
	</g>
	<path fill="#B1CCE5" d="M46.608,63.992l-8.839-8.84l47.14-47.142c0,0,4.624-1.27,7.364,1.474c2.747,2.744,1.478,7.367,1.478,7.367
		L46.608,63.992z"/>
	<g>
		<path fill="#685E32" d="M13.361,95.656c-1.981,0-3.593-1.611-3.593-3.593s1.612-3.594,3.593-3.594s3.594,1.612,3.594,3.594
			S15.342,95.656,13.361,95.656z M36.12,92.063c0-1.981-1.612-3.594-3.593-3.594c-1.982,0-3.594,1.612-3.594,3.594
			s1.611,3.593,3.594,3.593C34.508,95.656,36.12,94.045,36.12,92.063z"/>
		<g>
			<path fill="#FFFF00" d="M39.713,88.47H6.174c-0.66,0-1.199-0.538-1.199-1.198V44.15c0-0.66,0.539-1.198,1.199-1.198h33.539
				c0.66,0,1.198,0.538,1.198,1.198v43.121C40.911,87.932,40.373,88.47,39.713,88.47z"/>
		</g>
		<path fill="#DDBF0E" d="M27.734,29.776v11.979h-9.582V29.776h-2.396v11.979H6.174c-1.323,0-2.396,1.074-2.396,2.396v43.121
			c0,1.323,1.073,2.397,2.396,2.397h3.06c-0.412,0.705-0.665,1.517-0.665,2.395c0,2.648,2.143,4.791,4.792,4.791
			s4.792-2.143,4.792-4.791c0-0.878-0.252-1.689-0.665-2.395h10.912c-0.412,0.705-0.665,1.517-0.665,2.395
			c0,2.648,2.144,4.791,4.792,4.791c2.648,0,4.791-2.143,4.791-4.791c0-0.878-0.253-1.689-0.665-2.395h3.061
			c1.322,0,2.396-1.074,2.396-2.397V44.15c0-1.322-1.074-2.396-2.396-2.396H30.13V29.776H27.734z M15.756,92.063
			c0,1.318-1.076,2.396-2.396,2.396c-1.32,0-2.396-1.078-2.396-2.396c0-1.32,1.077-2.395,2.396-2.395
			C14.68,89.669,15.756,90.743,15.756,92.063z M34.922,92.063c0,1.318-1.076,2.396-2.396,2.396s-2.396-1.078-2.396-2.396
			c0-1.32,1.076-2.395,2.396-2.395S34.922,90.743,34.922,92.063z M39.713,87.271H6.174V44.15h33.539V87.271z"/>
		<g>
			<g>
				<path fill="#DDBF0E" d="M10.964,48.942h2.396V82.48h-2.396V48.942z M18.152,82.48h2.396V48.942h-2.396V82.48z M25.339,82.48
					h2.396V48.942h-2.396V82.48z M32.529,48.942V82.48h2.396V48.942H32.529z"/>
			</g>
		</g>
		<path fill="#A09B87" stroke="#7A7664" d="M31.329,35v-5.989c0-0.659-0.539-1.199-1.198-1.199H15.756
			c-0.66,0-1.197,0.54-1.197,1.199V35h4.79v-2.396h7.188V35H31.329z"/>
	</g>
	
		<path fill="none" stroke="#5561B5" stroke-width="2" stroke-linecap="round" stroke-linejoin="round" stroke-dasharray="6,6,6,6,6,6" d="
		M13,17c4-11.625,56.5-21.901,56.75,5.125c0.282,30.549-51.598,13.73-46.806,41.19c4.963,28.443,54.483,15.98,54.483,15.98"/>
	<g>
		<path fill="#617773" d="M77.426,49.054c-1.921,0-3.478,1.559-3.478,3.478c0,1.921,1.557,3.48,3.478,3.48
			c1.919,0,3.48-1.56,3.48-3.48C80.906,50.613,79.345,49.054,77.426,49.054z M77.426,55.048c-1.388,0-2.513-1.127-2.513-2.516
			c0-1.387,1.125-2.513,2.513-2.513c1.387,0,2.517,1.126,2.517,2.513C79.942,53.921,78.813,55.048,77.426,55.048z"/>
		<rect x="76.099" y="55.504" fill="#617773" width="2.657" height="1.688"/>
		<path fill="#A7C4BF" d="M91.165,62.561c-3.661-3.661-8.53-5.678-13.708-5.678c-5.179,0-10.047,2.017-13.71,5.678
			c-3.661,3.662-5.678,8.53-5.678,13.709s2.017,10.047,5.678,13.709c3.663,3.661,8.531,5.678,13.71,5.678
			c5.178,0,10.047-2.017,13.708-5.678c3.661-3.662,5.678-8.53,5.678-13.709S94.826,66.223,91.165,62.561z"/>
		<path fill="#617773" d="M91.165,62.561c-3.661-3.661-8.53-5.678-13.708-5.678c-5.179,0-10.047,2.017-13.71,5.678
			c-3.661,3.662-5.678,8.53-5.678,13.709s2.017,10.047,5.678,13.709c3.663,3.661,8.531,5.678,13.71,5.678
			c5.178,0,10.047-2.017,13.708-5.678c3.661-3.662,5.678-8.53,5.678-13.709S94.826,66.223,91.165,62.561z M78.159,95.048v-1.532
			c0-0.388-0.314-0.702-0.702-0.702c-0.389,0-0.703,0.314-0.703,0.702v1.532c-9.804-0.362-17.713-8.271-18.075-18.075h1.532
			c0.389,0,0.703-0.314,0.703-0.703c0-0.388-0.314-0.702-0.703-0.702h-1.532c0.362-9.806,8.271-17.714,18.075-18.075v1.53
			c0,0.389,0.314,0.704,0.703,0.704c0.388,0,0.702-0.315,0.702-0.704v-1.53c9.805,0.361,17.713,8.27,18.076,18.075h-1.532
			c-0.389,0-0.703,0.314-0.703,0.702c0,0.389,0.314,0.703,0.703,0.703h1.532C95.872,86.777,87.964,94.686,78.159,95.048z"/>
		<g>
			<g>
				<path fill="#617773" d="M74.401,73.244l12.762-6.711l-6.711,12.763L74.401,73.244z"/>
				<path fill="#D3F4ED" d="M74.401,73.244l12.762-6.711l-9.737,9.737L74.401,73.244z"/>
			</g>
			<g>
				<path fill="#617773" d="M80.452,79.296l-12.763,6.712l6.712-12.764L80.452,79.296z"/>
				<path fill="#D3F4ED" d="M80.452,79.296l-12.763,6.712l9.737-9.737L80.452,79.296z"/>
			</g>
		</g>
	</g>
	<path fill="#B1CCE5" d="M70.375,36.75l-22.789,8.585L74.401,18.52L70.375,36.75z"/>
</g>
</svg>
