<?xml version="1.0" encoding="utf-8"?>
<!-- Generator: Adobe Illustrator 14.0.0, SVG Export Plug-In . SVG Version: 6.00 Build 43363)  -->
<!DOCTYPE svg PUBLIC "-//W3C//DTD SVG 1.1//EN" "http://www.w3.org/Graphics/SVG/1.1/DTD/svg11.dtd">
<svg version="1.1" id="Layer_1" xmlns="http://www.w3.org/2000/svg" xmlns:xlink="http://www.w3.org/1999/xlink" x="0px" y="0px"
	 width="552.609px" height="57.64px" viewBox="0 0 552.609 57.64" enable-background="new 0 0 552.609 57.64" xml:space="preserve">
<g>
	<path fill="#ED1E24" stroke="#000000" stroke-linecap="round" stroke-linejoin="round" d="M32.77,44.36l-2.4-6.061h-15.3
		l-2.28,6.061H4.27L14.41,8h21.36l10.14,36.36H32.77z M27.31,30.5l-4.74-12l-4.56,12H27.31z"/>
	<path fill="#ED1E24" stroke="#000000" stroke-linecap="round" stroke-linejoin="round" d="M70.269,44.36
		c-4.761-4.6-8.121-7.86-10.08-9.78l-0.42,9.78h-11.04l-1.62-38.94h14.28l-0.72,18.48l6.06-7.98h12.12l-8.46,11.88l9.66,16.561
		H70.269z"/>
	<path fill="#ED1E24" stroke="#000000" stroke-linecap="round" stroke-linejoin="round" d="M108.788,40.16
		c-3,3.2-7.01,4.8-12.03,4.8c-5.021,0-8.91-1.35-11.67-4.05c-2.76-2.7-4.14-6.51-4.14-11.43s1.479-8.551,4.44-10.891
		c2.96-2.34,6.66-3.51,11.1-3.51c1.88,0,3.69,0.18,5.43,0.54c1.74,0.36,3.009,0.74,3.81,1.14l1.2,0.54l-1.32,6.181
		c-1.641-0.48-3.33-0.721-5.07-0.721c-1.74,0-3.32,0.551-4.74,1.65c-1.42,1.101-2.13,2.79-2.13,5.07c0,5.12,1.98,7.68,5.94,7.68
		c1.04,0,2.04-0.13,3-0.39s1.659-0.53,2.1-0.811l0.66-0.359L108.788,40.16z"/>
	<path fill="#ED1E24" stroke="#000000" stroke-linecap="round" stroke-linejoin="round" d="M111.607,50.12
		c0.64-0.681,1.07-1.36,1.29-2.04c0.22-0.681,0.33-1.311,0.33-1.89c0-0.581-0.58-10.51-1.74-29.79c2.28,0.92,4.819,1.38,7.62,1.38
		c2.36,0,4.6-0.34,6.72-1.021l0.96-0.359l-2.04,28.2c-0.24,3.319-1.311,5.959-3.21,7.92c-1.9,1.959-4.67,2.939-8.31,2.939
		l-4.44-3.42l0.78-0.36C110.288,51.32,110.967,50.8,111.607,50.12z M119.107,15.14c-2,0-3.681-0.6-5.04-1.8
		c-1.36-1.2-2.04-2.77-2.04-4.71c0-1.939,0.669-3.499,2.01-4.68c1.34-1.18,3.02-1.771,5.04-1.771c2.02,0,3.709,0.601,5.07,1.801
		c1.359,1.199,2.04,2.76,2.04,4.68s-0.681,3.479-2.04,4.68C122.787,14.54,121.107,15.14,119.107,15.14z"/>
	<path fill="#ED1E24" stroke="#000000" stroke-linecap="round" stroke-linejoin="round" d="M140.647,44.96
		c-3.081,0-5.61-0.899-7.59-2.7c-1.98-1.8-2.97-4.35-2.97-7.649s1.119-5.7,3.36-7.2c2.24-1.5,4.94-2.25,8.1-2.25
		c3.159,0,5.9,0.501,8.22,1.5c-0.521-3.319-2.621-4.98-6.3-4.98c-1.68,0-3.76,0.341-6.24,1.021l-1.5-5.4
		c3.6-1.479,7.26-2.22,10.98-2.22c10.719,0,16.08,4.56,16.08,13.68c0,3.12-0.36,7.44-1.08,12.96l-0.3,2.641h-9.9l-0.36-3.3
		C148.426,43.661,144.927,44.96,140.647,44.96z M146.047,37.521c1.8,0,3.339-0.5,4.62-1.5l-0.36-3.96c-1-0.68-2.11-1.021-3.33-1.021
		c-1.221,0-2.22,0.3-3,0.9c-0.78,0.6-1.17,1.34-1.17,2.22s0.3,1.66,0.9,2.34C144.307,37.181,145.087,37.521,146.047,37.521z"/>
	<path fill="#97AA3B" stroke="#000000" stroke-linecap="round" stroke-linejoin="round" d="M192.846,8c4.28,0,7.71,1.011,10.29,3.03
		c2.58,2.021,3.87,5.01,3.87,8.97c0,1.44-0.3,2.811-0.9,4.11s-1.32,2.35-2.16,3.149c-1.76,1.601-3.38,2.74-4.86,3.42l-0.9,0.36
		l6.48,13.32h-10.5l-11.64-11.7l-1.14,11.7h-11.7L166.086,8H192.846z M186.066,26.18c1.839,0,3.3-0.56,4.38-1.68
		c1.08-1.119,1.62-2.49,1.62-4.11c0-1.619-0.51-2.839-1.53-3.659c-1.02-0.819-2.331-1.23-3.93-1.23h-2.4l-1.02,10.68H186.066z"/>
	<path fill="#97AA3B" stroke="#000000" stroke-linecap="round" stroke-linejoin="round" d="M225.066,44.96
		c-4.521,0-8.311-1.31-11.371-3.93c-3.06-2.619-4.59-6.47-4.59-11.55c0-3.2,0.78-5.92,2.34-8.16c2.84-4.16,7.24-6.24,13.2-6.24
		c4.561,0,8.04,0.91,10.44,2.73s3.6,4.33,3.6,7.529c0,2.48-0.989,4.491-2.97,6.03c-1.979,1.54-4.87,2.31-8.67,2.31
		c-1.56,0-2.961-0.119-4.2-0.359l-0.66-0.12c0.2,1.439,0.83,2.511,1.891,3.21c1.06,0.7,2.329,1.05,3.81,1.05
		c2.439,0,4.52-0.739,6.24-2.22l3.72,4.5c-0.64,0.76-1.4,1.47-2.279,2.13c-0.881,0.66-2.28,1.341-4.2,2.04
		S227.346,44.96,225.066,44.96z M229.926,24.8c0-0.8-0.311-1.459-0.93-1.979c-0.621-0.52-1.47-0.78-2.55-0.78s-2.091,0.48-3.03,1.44
		c-0.94,0.96-1.41,2.1-1.41,3.42c0.88,0.4,2.03,0.6,3.45,0.6c1.419,0,2.52-0.249,3.3-0.75
		C229.536,26.25,229.926,25.601,229.926,24.8z"/>
	<path fill="#97AA3B" stroke="#000000" stroke-linecap="round" stroke-linejoin="round" d="M269.285,44.36l-2.399-6.061h-15.3
		l-2.28,6.061h-8.521L250.926,8h21.359l10.14,36.36H269.285z M263.825,30.5l-4.739-12l-4.561,12H263.825z"/>
	<path fill="#97AA3B" stroke="#000000" stroke-linecap="round" stroke-linejoin="round" d="M306.785,44.36
		c-4.76-4.6-8.119-7.86-10.08-9.78l-0.42,9.78h-11.039l-1.621-38.94h14.281l-0.721,18.48l6.061-7.98h12.119l-8.459,11.88
		l9.66,16.561H306.785z"/>
	<path fill="#97AA3B" stroke="#000000" stroke-linecap="round" stroke-linejoin="round" d="M333.664,33.68
		c-0.039,2.32,0.781,3.48,2.461,3.48c0.479,0,1.059-0.22,1.74-0.66l1.26,5.82c-0.24,0.2-0.57,0.45-0.99,0.75s-1.32,0.689-2.701,1.17
		c-1.379,0.479-2.811,0.72-4.289,0.72c-2.721,0-4.941-0.93-6.66-2.79c-1.721-1.859-2.641-4.229-2.76-7.109l-0.541-11.341h-4.619
		l0.721-7.8h3.6l-0.24-5.88l14.221-2.88l-0.42,8.76h3.479l0.721,7.8h-4.561L333.664,33.68z"/>
	<path fill="#97AA3B" stroke="#000000" stroke-linecap="round" stroke-linejoin="round" d="M363.542,37.7v-0.48
		c-0.119,0.681-0.43,1.431-0.93,2.25c-0.5,0.82-1.051,1.511-1.65,2.07c-0.6,0.561-1.449,1.061-2.549,1.5
		c-1.102,0.44-2.551,0.66-4.352,0.66c-1.799,0-3.5-0.41-5.1-1.23c-1.6-0.819-2.84-1.949-3.719-3.39
		c-1.682-2.68-2.521-5.63-2.521-8.85s0.461-7.989,1.381-14.311h11.641v12.96c0,4.4,1.299,6.601,3.898,6.601
		c1.16,0,2.02-0.52,2.58-1.561c0.561-1.039,0.84-2.359,0.84-3.96c0-0.199,0-0.42,0-0.66l-0.539-13.38h13.5l-0.84,18.42
		c-0.121,2.601-0.311,4.821-0.57,6.66c-0.26,1.841-0.74,3.729-1.439,5.67c-0.701,1.939-1.611,3.51-2.73,4.71
		c-2.602,2.72-6.461,4.08-11.58,4.08c-3.6,0-6.98-1.12-10.141-3.359l-0.539-0.36l2.52-5.16c1.92,0.88,3.721,1.32,5.4,1.32
		c2.318,0,4.141-0.891,5.459-2.67C362.882,43.451,363.542,40.94,363.542,37.7z"/>
	<path fill="#97AA3B" stroke="#000000" stroke-linecap="round" stroke-linejoin="round" d="M418.982,15.92h8.82
		c0,3.72-0.35,7.24-1.049,10.561c-0.701,3.32-1.551,6.021-2.551,8.1c-2.121,4.32-4,7.26-5.641,8.82l-1.08,0.96h-12.059l-3-9.66
		c-0.842,1.96-1.811,3.74-2.91,5.34c-1.102,1.601-1.99,2.721-2.67,3.36l-0.961,0.96h-10.199l-8.76-28.44h14.879l2.58,17.94
		c0.24-0.24,0.561-0.609,0.961-1.11c0.398-0.5,1.02-1.699,1.859-3.6c0.84-1.899,1.459-3.97,1.859-6.21l-2.34-7.021h14.82l2.34,17.88
		c1.16-1.159,2.279-3.159,3.359-6C418.402,24.601,418.982,20.641,418.982,15.92z"/>
	<path fill="#97AA3B" stroke="#000000" stroke-linecap="round" stroke-linejoin="round" d="M441.06,44.96
		c-3.08,0-5.609-0.899-7.59-2.7c-1.979-1.8-2.969-4.35-2.969-7.649s1.119-5.7,3.359-7.2s4.939-2.25,8.1-2.25s5.9,0.501,8.221,1.5
		c-0.52-3.319-2.621-4.98-6.301-4.98c-1.68,0-3.76,0.341-6.24,1.021l-1.5-5.4c3.602-1.479,7.262-2.22,10.98-2.22
		c10.721,0,16.08,4.56,16.08,13.68c0,3.12-0.359,7.44-1.08,12.96l-0.299,2.641h-9.9l-0.361-3.3
		C448.841,43.661,445.341,44.96,441.06,44.96z M446.46,37.521c1.801,0,3.34-0.5,4.621-1.5l-0.361-3.96
		c-1-0.68-2.109-1.021-3.33-1.021s-2.219,0.3-3,0.9c-0.779,0.6-1.17,1.34-1.17,2.22s0.301,1.66,0.9,2.34
		C444.72,37.181,445.501,37.521,446.46,37.521z"/>
	<path fill="#97AA3B" stroke="#000000" stroke-linecap="round" stroke-linejoin="round" d="M494.341,40.16
		c-3,3.2-7.012,4.8-12.031,4.8s-8.908-1.35-11.67-4.05c-2.76-2.7-4.139-6.51-4.139-11.43s1.479-8.551,4.439-10.891
		c2.959-2.34,6.66-3.51,11.1-3.51c1.881,0,3.691,0.18,5.43,0.54c1.74,0.36,3.01,0.74,3.811,1.14l1.201,0.54l-1.32,6.181
		c-1.641-0.48-3.33-0.721-5.07-0.721s-3.32,0.551-4.74,1.65c-1.42,1.101-2.131,2.79-2.131,5.07c0,5.12,1.98,7.68,5.941,7.68
		c1.039,0,2.039-0.13,3-0.39c0.959-0.26,1.658-0.53,2.1-0.811l0.66-0.359L494.341,40.16z"/>
	<path fill="#97AA3B" stroke="#000000" stroke-linecap="round" stroke-linejoin="round" d="M497.162,50.12
		c0.639-0.681,1.068-1.36,1.289-2.04c0.219-0.681,0.33-1.311,0.33-1.89c0-0.581-0.58-10.51-1.74-29.79
		c2.281,0.92,4.82,1.38,7.621,1.38c2.359,0,4.598-0.34,6.719-1.021l0.961-0.359l-2.041,28.2c-0.24,3.319-1.311,5.959-3.209,7.92
		c-1.9,1.959-4.672,2.939-8.311,2.939l-4.439-3.42l0.779-0.36C495.841,51.32,496.521,50.8,497.162,50.12z M504.662,15.14
		c-2.002,0-3.682-0.6-5.041-1.8s-2.039-2.77-2.039-4.71c0-1.939,0.668-3.499,2.01-4.68c1.34-1.18,3.02-1.771,5.039-1.771
		s3.711,0.601,5.07,1.801c1.359,1.199,2.041,2.76,2.041,4.68s-0.682,3.479-2.041,4.68S506.66,15.14,504.662,15.14z"/>
	<path fill="#97AA3B" stroke="#000000" stroke-linecap="round" stroke-linejoin="round" d="M526.199,44.96
		c-3.08,0-5.609-0.899-7.59-2.7c-1.979-1.8-2.969-4.35-2.969-7.649s1.119-5.7,3.359-7.2s4.939-2.25,8.1-2.25s5.9,0.501,8.221,1.5
		c-0.52-3.319-2.621-4.98-6.301-4.98c-1.68,0-3.76,0.341-6.24,1.021l-1.5-5.4c3.602-1.479,7.262-2.22,10.98-2.22
		c10.721,0,16.08,4.56,16.08,13.68c0,3.12-0.359,7.44-1.08,12.96l-0.299,2.641h-9.9l-0.361-3.3
		C533.98,43.661,530.48,44.96,526.199,44.96z M531.599,37.521c1.801,0,3.34-0.5,4.621-1.5l-0.361-3.96
		c-1-0.68-2.109-1.021-3.33-1.021s-2.219,0.3-3,0.9c-0.779,0.6-1.17,1.34-1.17,2.22s0.301,1.66,0.9,2.34
		C529.859,37.181,530.64,37.521,531.599,37.521z"/>
</g>
</svg>
